solid Default
  facet normal 8.715574e-02 9.961947e-01 0.000000e+00
    outer loop
      vertex 1.000000e+01 1.125000e+01 0.000000e+00
      vertex 1.000000e+01 1.125000e+01 1.000000e+01
      vertex 1.021706e+01 1.123101e+01 0.000000e+00
    endloop
  endfacet
  facet normal 8.715574e-02 9.961947e-01 0.000000e+00
    outer loop
      vertex 1.021706e+01 1.123101e+01 0.000000e+00
      vertex 1.000000e+01 1.125000e+01 1.000000e+01
      vertex 1.021706e+01 1.123101e+01 1.000000e+01
    endloop
  endfacet
  facet normal 2.588190e-01 9.659258e-01 0.000000e+00
    outer loop
      vertex 1.042753e+01 1.117462e+01 0.000000e+00
      vertex 1.021706e+01 1.123101e+01 1.000000e+01
      vertex 1.042753e+01 1.117462e+01 1.000000e+01
    endloop
  endfacet
  facet normal 4.226183e-01 9.063078e-01 0.000000e+00
    outer loop
      vertex 1.062500e+01 1.108253e+01 0.000000e+00
      vertex 1.042753e+01 1.117462e+01 1.000000e+01
      vertex 1.062500e+01 1.108253e+01 1.000000e+01
    endloop
  endfacet
  facet normal 5.735765e-01 8.191520e-01 0.000000e+00
    outer loop
      vertex 1.080348e+01 1.095756e+01 0.000000e+00
      vertex 1.062500e+01 1.108253e+01 1.000000e+01
      vertex 1.080348e+01 1.095756e+01 1.000000e+01
    endloop
  endfacet
  facet normal 7.071068e-01 7.071068e-01 0.000000e+00
    outer loop
      vertex 1.095756e+01 1.080348e+01 0.000000e+00
      vertex 1.080348e+01 1.095756e+01 1.000000e+01
      vertex 1.095756e+01 1.080348e+01 1.000000e+01
    endloop
  endfacet
  facet normal 8.191520e-01 5.735765e-01 0.000000e+00
    outer loop
      vertex 1.108253e+01 1.062500e+01 0.000000e+00
      vertex 1.095756e+01 1.080348e+01 1.000000e+01
      vertex 1.108253e+01 1.062500e+01 1.000000e+01
    endloop
  endfacet
  facet normal 9.063078e-01 4.226183e-01 0.000000e+00
    outer loop
      vertex 1.117462e+01 1.042753e+01 0.000000e+00
      vertex 1.108253e+01 1.062500e+01 1.000000e+01
      vertex 1.117462e+01 1.042753e+01 1.000000e+01
    endloop
  endfacet
  facet normal 9.659258e-01 2.588190e-01 0.000000e+00
    outer loop
      vertex 1.123101e+01 1.021706e+01 0.000000e+00
      vertex 1.117462e+01 1.042753e+01 1.000000e+01
      vertex 1.123101e+01 1.021706e+01 1.000000e+01
    endloop
  endfacet
  facet normal 9.961947e-01 8.715574e-02 0.000000e+00
    outer loop
      vertex 1.125000e+01 1.000000e+01 0.000000e+00
      vertex 1.123101e+01 1.021706e+01 1.000000e+01
      vertex 1.125000e+01 1.000000e+01 1.000000e+01
    endloop
  endfacet
  facet normal 9.961947e-01 8.715574e-02 0.000000e+00
    outer loop
      vertex 1.125000e+01 1.000000e+01 0.000000e+00
      vertex 1.123101e+01 1.021706e+01 0.000000e+00
      vertex 1.123101e+01 1.021706e+01 1.000000e+01
    endloop
  endfacet
  facet normal 9.659258e-01 2.588190e-01 0.000000e+00
    outer loop
      vertex 1.123101e+01 1.021706e+01 0.000000e+00
      vertex 1.117462e+01 1.042753e+01 0.000000e+00
      vertex 1.117462e+01 1.042753e+01 1.000000e+01
    endloop
  endfacet
  facet normal 9.063078e-01 4.226183e-01 0.000000e+00
    outer loop
      vertex 1.117462e+01 1.042753e+01 0.000000e+00
      vertex 1.108253e+01 1.062500e+01 0.000000e+00
      vertex 1.108253e+01 1.062500e+01 1.000000e+01
    endloop
  endfacet
  facet normal 8.191520e-01 5.735765e-01 0.000000e+00
    outer loop
      vertex 1.108253e+01 1.062500e+01 0.000000e+00
      vertex 1.095756e+01 1.080348e+01 0.000000e+00
      vertex 1.095756e+01 1.080348e+01 1.000000e+01
    endloop
  endfacet
  facet normal 7.071068e-01 7.071068e-01 0.000000e+00
    outer loop
      vertex 1.095756e+01 1.080348e+01 0.000000e+00
      vertex 1.080348e+01 1.095756e+01 0.000000e+00
      vertex 1.080348e+01 1.095756e+01 1.000000e+01
    endloop
  endfacet
  facet normal 5.735765e-01 8.191520e-01 0.000000e+00
    outer loop
      vertex 1.080348e+01 1.095756e+01 0.000000e+00
      vertex 1.062500e+01 1.108253e+01 0.000000e+00
      vertex 1.062500e+01 1.108253e+01 1.000000e+01
    endloop
  endfacet
  facet normal 4.226183e-01 9.063078e-01 0.000000e+00
    outer loop
      vertex 1.062500e+01 1.108253e+01 0.000000e+00
      vertex 1.042753e+01 1.117462e+01 0.000000e+00
      vertex 1.042753e+01 1.117462e+01 1.000000e+01
    endloop
  endfacet
  facet normal 2.588190e-01 9.659258e-01 0.000000e+00
    outer loop
      vertex 1.042753e+01 1.117462e+01 0.000000e+00
      vertex 1.021706e+01 1.123101e+01 0.000000e+00
      vertex 1.021706e+01 1.123101e+01 1.000000e+01
    endloop
  endfacet
  facet normal 1.000000e+00 2.220446e-16 0.000000e+00
    outer loop
      vertex 1.125000e+01 1.000000e+01 1.000000e+01
      vertex 1.125000e+01 -1.000000e+01 1.000000e+01
      vertex 1.125000e+01 1.000000e+01 0.000000e+00
    endloop
  endfacet
  facet normal 1.000000e+00 2.220446e-16 0.000000e+00
    outer loop
      vertex 1.125000e+01 1.000000e+01 0.000000e+00
      vertex 1.125000e+01 -1.000000e+01 1.000000e+01
      vertex 1.125000e+01 -1.000000e+01 0.000000e+00
    endloop
  endfacet
  facet normal 9.961947e-01 -8.715574e-02 0.000000e+00
    outer loop
      vertex 1.125000e+01 -1.000000e+01 0.000000e+00
      vertex 1.125000e+01 -1.000000e+01 1.000000e+01
      vertex 1.123101e+01 -1.021706e+01 0.000000e+00
    endloop
  endfacet
  facet normal 9.961947e-01 -8.715574e-02 0.000000e+00
    outer loop
      vertex 1.123101e+01 -1.021706e+01 0.000000e+00
      vertex 1.125000e+01 -1.000000e+01 1.000000e+01
      vertex 1.123101e+01 -1.021706e+01 1.000000e+01
    endloop
  endfacet
  facet normal 9.659258e-01 -2.588190e-01 0.000000e+00
    outer loop
      vertex 1.117462e+01 -1.042753e+01 0.000000e+00
      vertex 1.123101e+01 -1.021706e+01 1.000000e+01
      vertex 1.117462e+01 -1.042753e+01 1.000000e+01
    endloop
  endfacet
  facet normal 9.063078e-01 -4.226183e-01 0.000000e+00
    outer loop
      vertex 1.108253e+01 -1.062500e+01 0.000000e+00
      vertex 1.117462e+01 -1.042753e+01 1.000000e+01
      vertex 1.108253e+01 -1.062500e+01 1.000000e+01
    endloop
  endfacet
  facet normal 8.191520e-01 -5.735765e-01 0.000000e+00
    outer loop
      vertex 1.095756e+01 -1.080348e+01 0.000000e+00
      vertex 1.108253e+01 -1.062500e+01 1.000000e+01
      vertex 1.095756e+01 -1.080348e+01 1.000000e+01
    endloop
  endfacet
  facet normal 7.071068e-01 -7.071068e-01 0.000000e+00
    outer loop
      vertex 1.080348e+01 -1.095756e+01 0.000000e+00
      vertex 1.095756e+01 -1.080348e+01 1.000000e+01
      vertex 1.080348e+01 -1.095756e+01 1.000000e+01
    endloop
  endfacet
  facet normal 5.735765e-01 -8.191520e-01 0.000000e+00
    outer loop
      vertex 1.062500e+01 -1.108253e+01 0.000000e+00
      vertex 1.080348e+01 -1.095756e+01 1.000000e+01
      vertex 1.062500e+01 -1.108253e+01 1.000000e+01
    endloop
  endfacet
  facet normal 4.226183e-01 -9.063078e-01 0.000000e+00
    outer loop
      vertex 1.042753e+01 -1.117462e+01 0.000000e+00
      vertex 1.062500e+01 -1.108253e+01 1.000000e+01
      vertex 1.042753e+01 -1.117462e+01 1.000000e+01
    endloop
  endfacet
  facet normal 2.588190e-01 -9.659258e-01 0.000000e+00
    outer loop
      vertex 1.021706e+01 -1.123101e+01 0.000000e+00
      vertex 1.042753e+01 -1.117462e+01 1.000000e+01
      vertex 1.021706e+01 -1.123101e+01 1.000000e+01
    endloop
  endfacet
  facet normal 8.715574e-02 -9.961947e-01 0.000000e+00
    outer loop
      vertex 1.000000e+01 -1.125000e+01 0.000000e+00
      vertex 1.021706e+01 -1.123101e+01 1.000000e+01
      vertex 1.000000e+01 -1.125000e+01 1.000000e+01
    endloop
  endfacet
  facet normal 8.715574e-02 -9.961947e-01 0.000000e+00
    outer loop
      vertex 1.000000e+01 -1.125000e+01 0.000000e+00
      vertex 1.021706e+01 -1.123101e+01 0.000000e+00
      vertex 1.021706e+01 -1.123101e+01 1.000000e+01
    endloop
  endfacet
  facet normal 2.588190e-01 -9.659258e-01 0.000000e+00
    outer loop
      vertex 1.021706e+01 -1.123101e+01 0.000000e+00
      vertex 1.042753e+01 -1.117462e+01 0.000000e+00
      vertex 1.042753e+01 -1.117462e+01 1.000000e+01
    endloop
  endfacet
  facet normal 4.226183e-01 -9.063078e-01 0.000000e+00
    outer loop
      vertex 1.042753e+01 -1.117462e+01 0.000000e+00
      vertex 1.062500e+01 -1.108253e+01 0.000000e+00
      vertex 1.062500e+01 -1.108253e+01 1.000000e+01
    endloop
  endfacet
  facet normal 5.735765e-01 -8.191520e-01 0.000000e+00
    outer loop
      vertex 1.062500e+01 -1.108253e+01 0.000000e+00
      vertex 1.080348e+01 -1.095756e+01 0.000000e+00
      vertex 1.080348e+01 -1.095756e+01 1.000000e+01
    endloop
  endfacet
  facet normal 7.071068e-01 -7.071068e-01 0.000000e+00
    outer loop
      vertex 1.080348e+01 -1.095756e+01 0.000000e+00
      vertex 1.095756e+01 -1.080348e+01 0.000000e+00
      vertex 1.095756e+01 -1.080348e+01 1.000000e+01
    endloop
  endfacet
  facet normal 8.191520e-01 -5.735765e-01 0.000000e+00
    outer loop
      vertex 1.095756e+01 -1.080348e+01 0.000000e+00
      vertex 1.108253e+01 -1.062500e+01 0.000000e+00
      vertex 1.108253e+01 -1.062500e+01 1.000000e+01
    endloop
  endfacet
  facet normal 9.063078e-01 -4.226183e-01 0.000000e+00
    outer loop
      vertex 1.108253e+01 -1.062500e+01 0.000000e+00
      vertex 1.117462e+01 -1.042753e+01 0.000000e+00
      vertex 1.117462e+01 -1.042753e+01 1.000000e+01
    endloop
  endfacet
  facet normal 9.659258e-01 -2.588190e-01 0.000000e+00
    outer loop
      vertex 1.117462e+01 -1.042753e+01 0.000000e+00
      vertex 1.123101e+01 -1.021706e+01 0.000000e+00
      vertex 1.123101e+01 -1.021706e+01 1.000000e+01
    endloop
  endfacet
  facet normal -2.220446e-16 -1.000000e+00 0.000000e+00
    outer loop
      vertex 1.000000e+01 -1.125000e+01 1.000000e+01
      vertex -1.000000e+01 -1.125000e+01 1.000000e+01
      vertex 1.000000e+01 -1.125000e+01 0.000000e+00
    endloop
  endfacet
  facet normal -2.220446e-16 -1.000000e+00 -0.000000e+00
    outer loop
      vertex 1.000000e+01 -1.125000e+01 0.000000e+00
      vertex -1.000000e+01 -1.125000e+01 1.000000e+01
      vertex -1.000000e+01 -1.125000e+01 0.000000e+00
    endloop
  endfacet
  facet normal -8.715574e-02 -9.961947e-01 0.000000e+00
    outer loop
      vertex -1.000000e+01 -1.125000e+01 0.000000e+00
      vertex -1.000000e+01 -1.125000e+01 1.000000e+01
      vertex -1.021706e+01 -1.123101e+01 0.000000e+00
    endloop
  endfacet
  facet normal -8.715574e-02 -9.961947e-01 0.000000e+00
    outer loop
      vertex -1.021706e+01 -1.123101e+01 0.000000e+00
      vertex -1.000000e+01 -1.125000e+01 1.000000e+01
      vertex -1.021706e+01 -1.123101e+01 1.000000e+01
    endloop
  endfacet
  facet normal -2.588190e-01 -9.659258e-01 5.722319e-17
    outer loop
      vertex -1.042753e+01 -1.117462e+01 0.000000e+00
      vertex -1.021706e+01 -1.123101e+01 1.000000e+01
      vertex -1.042753e+01 -1.117462e+01 1.000000e+01
    endloop
  endfacet
  facet normal -4.226183e-01 -9.063078e-01 0.000000e+00
    outer loop
      vertex -1.062500e+01 -1.108253e+01 0.000000e+00
      vertex -1.042753e+01 -1.117462e+01 1.000000e+01
      vertex -1.062500e+01 -1.108253e+01 1.000000e+01
    endloop
  endfacet
  facet normal -5.735765e-01 -8.191520e-01 1.281302e-16
    outer loop
      vertex -1.080348e+01 -1.095756e+01 0.000000e+00
      vertex -1.062500e+01 -1.108253e+01 1.000000e+01
      vertex -1.080348e+01 -1.095756e+01 1.000000e+01
    endloop
  endfacet
  facet normal -7.071068e-01 -7.071068e-01 0.000000e+00
    outer loop
      vertex -1.095756e+01 -1.080348e+01 0.000000e+00
      vertex -1.080348e+01 -1.095756e+01 1.000000e+01
      vertex -1.095756e+01 -1.080348e+01 1.000000e+01
    endloop
  endfacet
  facet normal -8.191520e-01 -5.735765e-01 0.000000e+00
    outer loop
      vertex -1.108253e+01 -1.062500e+01 0.000000e+00
      vertex -1.095756e+01 -1.080348e+01 1.000000e+01
      vertex -1.108253e+01 -1.062500e+01 1.000000e+01
    endloop
  endfacet
  facet normal -9.063078e-01 -4.226183e-01 0.000000e+00
    outer loop
      vertex -1.117462e+01 -1.042753e+01 0.000000e+00
      vertex -1.108253e+01 -1.062500e+01 1.000000e+01
      vertex -1.117462e+01 -1.042753e+01 1.000000e+01
    endloop
  endfacet
  facet normal -9.659258e-01 -2.588190e-01 0.000000e+00
    outer loop
      vertex -1.123101e+01 -1.021706e+01 0.000000e+00
      vertex -1.117462e+01 -1.042753e+01 1.000000e+01
      vertex -1.123101e+01 -1.021706e+01 1.000000e+01
    endloop
  endfacet
  facet normal -9.961947e-01 -8.715574e-02 0.000000e+00
    outer loop
      vertex -1.125000e+01 -1.000000e+01 0.000000e+00
      vertex -1.123101e+01 -1.021706e+01 1.000000e+01
      vertex -1.125000e+01 -1.000000e+01 1.000000e+01
    endloop
  endfacet
  facet normal -9.961947e-01 -8.715574e-02 0.000000e+00
    outer loop
      vertex -1.125000e+01 -1.000000e+01 0.000000e+00
      vertex -1.123101e+01 -1.021706e+01 0.000000e+00
      vertex -1.123101e+01 -1.021706e+01 1.000000e+01
    endloop
  endfacet
  facet normal -9.659258e-01 -2.588190e-01 0.000000e+00
    outer loop
      vertex -1.123101e+01 -1.021706e+01 0.000000e+00
      vertex -1.117462e+01 -1.042753e+01 0.000000e+00
      vertex -1.117462e+01 -1.042753e+01 1.000000e+01
    endloop
  endfacet
  facet normal -9.063078e-01 -4.226183e-01 0.000000e+00
    outer loop
      vertex -1.117462e+01 -1.042753e+01 0.000000e+00
      vertex -1.108253e+01 -1.062500e+01 0.000000e+00
      vertex -1.108253e+01 -1.062500e+01 1.000000e+01
    endloop
  endfacet
  facet normal -8.191520e-01 -5.735765e-01 0.000000e+00
    outer loop
      vertex -1.108253e+01 -1.062500e+01 0.000000e+00
      vertex -1.095756e+01 -1.080348e+01 0.000000e+00
      vertex -1.095756e+01 -1.080348e+01 1.000000e+01
    endloop
  endfacet
  facet normal -7.071068e-01 -7.071068e-01 1.570092e-16
    outer loop
      vertex -1.095756e+01 -1.080348e+01 0.000000e+00
      vertex -1.080348e+01 -1.095756e+01 0.000000e+00
      vertex -1.080348e+01 -1.095756e+01 1.000000e+01
    endloop
  endfacet
  facet normal -5.735765e-01 -8.191520e-01 0.000000e+00
    outer loop
      vertex -1.080348e+01 -1.095756e+01 0.000000e+00
      vertex -1.062500e+01 -1.108253e+01 0.000000e+00
      vertex -1.062500e+01 -1.108253e+01 1.000000e+01
    endloop
  endfacet
  facet normal -4.226183e-01 -9.063078e-01 9.384008e-17
    outer loop
      vertex -1.062500e+01 -1.108253e+01 0.000000e+00
      vertex -1.042753e+01 -1.117462e+01 0.000000e+00
      vertex -1.042753e+01 -1.117462e+01 1.000000e+01
    endloop
  endfacet
  facet normal -2.588190e-01 -9.659258e-01 0.000000e+00
    outer loop
      vertex -1.042753e+01 -1.117462e+01 0.000000e+00
      vertex -1.021706e+01 -1.123101e+01 0.000000e+00
      vertex -1.021706e+01 -1.123101e+01 1.000000e+01
    endloop
  endfacet
  facet normal -1.000000e+00 0.000000e+00 0.000000e+00
    outer loop
      vertex -1.125000e+01 -1.000000e+01 1.000000e+01
      vertex -1.125000e+01 1.000000e+01 1.000000e+01
      vertex -1.125000e+01 -1.000000e+01 0.000000e+00
    endloop
  endfacet
  facet normal -1.000000e+00 0.000000e+00 0.000000e+00
    outer loop
      vertex -1.125000e+01 -1.000000e+01 0.000000e+00
      vertex -1.125000e+01 1.000000e+01 1.000000e+01
      vertex -1.125000e+01 1.000000e+01 0.000000e+00
    endloop
  endfacet
  facet normal -9.961947e-01 8.715574e-02 0.000000e+00
    outer loop
      vertex -1.125000e+01 1.000000e+01 0.000000e+00
      vertex -1.125000e+01 1.000000e+01 1.000000e+01
      vertex -1.123101e+01 1.021706e+01 0.000000e+00
    endloop
  endfacet
  facet normal -9.961947e-01 8.715574e-02 0.000000e+00
    outer loop
      vertex -1.123101e+01 1.021706e+01 0.000000e+00
      vertex -1.125000e+01 1.000000e+01 1.000000e+01
      vertex -1.123101e+01 1.021706e+01 1.000000e+01
    endloop
  endfacet
  facet normal -9.659258e-01 2.588190e-01 0.000000e+00
    outer loop
      vertex -1.117462e+01 1.042753e+01 0.000000e+00
      vertex -1.123101e+01 1.021706e+01 1.000000e+01
      vertex -1.117462e+01 1.042753e+01 1.000000e+01
    endloop
  endfacet
  facet normal -9.063078e-01 4.226183e-01 0.000000e+00
    outer loop
      vertex -1.108253e+01 1.062500e+01 0.000000e+00
      vertex -1.117462e+01 1.042753e+01 1.000000e+01
      vertex -1.108253e+01 1.062500e+01 1.000000e+01
    endloop
  endfacet
  facet normal -8.191520e-01 5.735765e-01 0.000000e+00
    outer loop
      vertex -1.095756e+01 1.080348e+01 0.000000e+00
      vertex -1.108253e+01 1.062500e+01 1.000000e+01
      vertex -1.095756e+01 1.080348e+01 1.000000e+01
    endloop
  endfacet
  facet normal -7.071068e-01 7.071068e-01 0.000000e+00
    outer loop
      vertex -1.080348e+01 1.095756e+01 0.000000e+00
      vertex -1.095756e+01 1.080348e+01 1.000000e+01
      vertex -1.080348e+01 1.095756e+01 1.000000e+01
    endloop
  endfacet
  facet normal -5.735765e-01 8.191520e-01 0.000000e+00
    outer loop
      vertex -1.062500e+01 1.108253e+01 0.000000e+00
      vertex -1.080348e+01 1.095756e+01 1.000000e+01
      vertex -1.062500e+01 1.108253e+01 1.000000e+01
    endloop
  endfacet
  facet normal -4.226183e-01 9.063078e-01 0.000000e+00
    outer loop
      vertex -1.042753e+01 1.117462e+01 0.000000e+00
      vertex -1.062500e+01 1.108253e+01 1.000000e+01
      vertex -1.042753e+01 1.117462e+01 1.000000e+01
    endloop
  endfacet
  facet normal -2.588190e-01 9.659258e-01 0.000000e+00
    outer loop
      vertex -1.021706e+01 1.123101e+01 0.000000e+00
      vertex -1.042753e+01 1.117462e+01 1.000000e+01
      vertex -1.021706e+01 1.123101e+01 1.000000e+01
    endloop
  endfacet
  facet normal -8.715574e-02 9.961947e-01 0.000000e+00
    outer loop
      vertex -1.000000e+01 1.125000e+01 0.000000e+00
      vertex -1.021706e+01 1.123101e+01 1.000000e+01
      vertex -1.000000e+01 1.125000e+01 1.000000e+01
    endloop
  endfacet
  facet normal -8.715574e-02 9.961947e-01 0.000000e+00
    outer loop
      vertex -1.000000e+01 1.125000e+01 0.000000e+00
      vertex -1.021706e+01 1.123101e+01 0.000000e+00
      vertex -1.021706e+01 1.123101e+01 1.000000e+01
    endloop
  endfacet
  facet normal -2.588190e-01 9.659258e-01 0.000000e+00
    outer loop
      vertex -1.021706e+01 1.123101e+01 0.000000e+00
      vertex -1.042753e+01 1.117462e+01 0.000000e+00
      vertex -1.042753e+01 1.117462e+01 1.000000e+01
    endloop
  endfacet
  facet normal -4.226183e-01 9.063078e-01 0.000000e+00
    outer loop
      vertex -1.042753e+01 1.117462e+01 0.000000e+00
      vertex -1.062500e+01 1.108253e+01 0.000000e+00
      vertex -1.062500e+01 1.108253e+01 1.000000e+01
    endloop
  endfacet
  facet normal -5.735765e-01 8.191520e-01 0.000000e+00
    outer loop
      vertex -1.062500e+01 1.108253e+01 0.000000e+00
      vertex -1.080348e+01 1.095756e+01 0.000000e+00
      vertex -1.080348e+01 1.095756e+01 1.000000e+01
    endloop
  endfacet
  facet normal -7.071068e-01 7.071068e-01 0.000000e+00
    outer loop
      vertex -1.080348e+01 1.095756e+01 0.000000e+00
      vertex -1.095756e+01 1.080348e+01 0.000000e+00
      vertex -1.095756e+01 1.080348e+01 1.000000e+01
    endloop
  endfacet
  facet normal -8.191520e-01 5.735765e-01 0.000000e+00
    outer loop
      vertex -1.095756e+01 1.080348e+01 0.000000e+00
      vertex -1.108253e+01 1.062500e+01 0.000000e+00
      vertex -1.108253e+01 1.062500e+01 1.000000e+01
    endloop
  endfacet
  facet normal -9.063078e-01 4.226183e-01 0.000000e+00
    outer loop
      vertex -1.108253e+01 1.062500e+01 0.000000e+00
      vertex -1.117462e+01 1.042753e+01 0.000000e+00
      vertex -1.117462e+01 1.042753e+01 1.000000e+01
    endloop
  endfacet
  facet normal -9.659258e-01 2.588190e-01 0.000000e+00
    outer loop
      vertex -1.117462e+01 1.042753e+01 0.000000e+00
      vertex -1.123101e+01 1.021706e+01 0.000000e+00
      vertex -1.123101e+01 1.021706e+01 1.000000e+01
    endloop
  endfacet
  facet normal 0.000000e+00 1.000000e+00 0.000000e+00
    outer loop
      vertex -1.000000e+01 1.125000e+01 1.000000e+01
      vertex 1.000000e+01 1.125000e+01 1.000000e+01
      vertex -1.000000e+01 1.125000e+01 0.000000e+00
    endloop
  endfacet
  facet normal 0.000000e+00 1.000000e+00 0.000000e+00
    outer loop
      vertex -1.000000e+01 1.125000e+01 0.000000e+00
      vertex 1.000000e+01 1.125000e+01 1.000000e+01
      vertex 1.000000e+01 1.125000e+01 0.000000e+00
    endloop
  endfacet
  facet normal 8.715574e-02 -9.961947e-01 0.000000e+00
    outer loop
      vertex -1.000000e+01 1.100000e+01 0.000000e+00
      vertex -1.000000e+01 1.100000e+01 1.000000e+01
      vertex -1.017365e+01 1.098481e+01 0.000000e+00
    endloop
  endfacet
  facet normal 8.715574e-02 -9.961947e-01 0.000000e+00
    outer loop
      vertex -1.017365e+01 1.098481e+01 0.000000e+00
      vertex -1.000000e+01 1.100000e+01 1.000000e+01
      vertex -1.017365e+01 1.098481e+01 1.000000e+01
    endloop
  endfacet
  facet normal 2.588190e-01 -9.659258e-01 0.000000e+00
    outer loop
      vertex -1.034202e+01 1.093969e+01 0.000000e+00
      vertex -1.017365e+01 1.098481e+01 1.000000e+01
      vertex -1.034202e+01 1.093969e+01 1.000000e+01
    endloop
  endfacet
  facet normal 4.226183e-01 -9.063078e-01 0.000000e+00
    outer loop
      vertex -1.050000e+01 1.086603e+01 0.000000e+00
      vertex -1.034202e+01 1.093969e+01 1.000000e+01
      vertex -1.050000e+01 1.086603e+01 1.000000e+01
    endloop
  endfacet
  facet normal 5.735765e-01 -8.191520e-01 0.000000e+00
    outer loop
      vertex -1.064279e+01 1.076604e+01 0.000000e+00
      vertex -1.050000e+01 1.086603e+01 1.000000e+01
      vertex -1.064279e+01 1.076604e+01 1.000000e+01
    endloop
  endfacet
  facet normal 7.071068e-01 -7.071068e-01 0.000000e+00
    outer loop
      vertex -1.076604e+01 1.064279e+01 0.000000e+00
      vertex -1.064279e+01 1.076604e+01 1.000000e+01
      vertex -1.076604e+01 1.064279e+01 1.000000e+01
    endloop
  endfacet
  facet normal 8.191520e-01 -5.735765e-01 0.000000e+00
    outer loop
      vertex -1.086603e+01 1.050000e+01 0.000000e+00
      vertex -1.076604e+01 1.064279e+01 1.000000e+01
      vertex -1.086603e+01 1.050000e+01 1.000000e+01
    endloop
  endfacet
  facet normal 9.063078e-01 -4.226183e-01 0.000000e+00
    outer loop
      vertex -1.093969e+01 1.034202e+01 0.000000e+00
      vertex -1.086603e+01 1.050000e+01 1.000000e+01
      vertex -1.093969e+01 1.034202e+01 1.000000e+01
    endloop
  endfacet
  facet normal 9.659258e-01 -2.588190e-01 0.000000e+00
    outer loop
      vertex -1.098481e+01 1.017365e+01 0.000000e+00
      vertex -1.093969e+01 1.034202e+01 1.000000e+01
      vertex -1.098481e+01 1.017365e+01 1.000000e+01
    endloop
  endfacet
  facet normal 9.961947e-01 -8.715574e-02 0.000000e+00
    outer loop
      vertex -1.100000e+01 1.000000e+01 0.000000e+00
      vertex -1.098481e+01 1.017365e+01 1.000000e+01
      vertex -1.100000e+01 1.000000e+01 1.000000e+01
    endloop
  endfacet
  facet normal 9.961947e-01 -8.715574e-02 0.000000e+00
    outer loop
      vertex -1.100000e+01 1.000000e+01 0.000000e+00
      vertex -1.098481e+01 1.017365e+01 0.000000e+00
      vertex -1.098481e+01 1.017365e+01 1.000000e+01
    endloop
  endfacet
  facet normal 9.659258e-01 -2.588190e-01 0.000000e+00
    outer loop
      vertex -1.098481e+01 1.017365e+01 0.000000e+00
      vertex -1.093969e+01 1.034202e+01 0.000000e+00
      vertex -1.093969e+01 1.034202e+01 1.000000e+01
    endloop
  endfacet
  facet normal 9.063078e-01 -4.226183e-01 0.000000e+00
    outer loop
      vertex -1.093969e+01 1.034202e+01 0.000000e+00
      vertex -1.086603e+01 1.050000e+01 0.000000e+00
      vertex -1.086603e+01 1.050000e+01 1.000000e+01
    endloop
  endfacet
  facet normal 8.191520e-01 -5.735765e-01 0.000000e+00
    outer loop
      vertex -1.086603e+01 1.050000e+01 0.000000e+00
      vertex -1.076604e+01 1.064279e+01 0.000000e+00
      vertex -1.076604e+01 1.064279e+01 1.000000e+01
    endloop
  endfacet
  facet normal 7.071068e-01 -7.071068e-01 0.000000e+00
    outer loop
      vertex -1.076604e+01 1.064279e+01 0.000000e+00
      vertex -1.064279e+01 1.076604e+01 0.000000e+00
      vertex -1.064279e+01 1.076604e+01 1.000000e+01
    endloop
  endfacet
  facet normal 5.735765e-01 -8.191520e-01 0.000000e+00
    outer loop
      vertex -1.064279e+01 1.076604e+01 0.000000e+00
      vertex -1.050000e+01 1.086603e+01 0.000000e+00
      vertex -1.050000e+01 1.086603e+01 1.000000e+01
    endloop
  endfacet
  facet normal 4.226183e-01 -9.063078e-01 0.000000e+00
    outer loop
      vertex -1.050000e+01 1.086603e+01 0.000000e+00
      vertex -1.034202e+01 1.093969e+01 0.000000e+00
      vertex -1.034202e+01 1.093969e+01 1.000000e+01
    endloop
  endfacet
  facet normal 2.588190e-01 -9.659258e-01 0.000000e+00
    outer loop
      vertex -1.034202e+01 1.093969e+01 0.000000e+00
      vertex -1.017365e+01 1.098481e+01 0.000000e+00
      vertex -1.017365e+01 1.098481e+01 1.000000e+01
    endloop
  endfacet
  facet normal 1.000000e+00 -3.330669e-16 0.000000e+00
    outer loop
      vertex -1.100000e+01 1.000000e+01 1.000000e+01
      vertex -1.100000e+01 -1.000000e+01 1.000000e+01
      vertex -1.100000e+01 1.000000e+01 0.000000e+00
    endloop
  endfacet
  facet normal 1.000000e+00 -3.330669e-16 0.000000e+00
    outer loop
      vertex -1.100000e+01 1.000000e+01 0.000000e+00
      vertex -1.100000e+01 -1.000000e+01 1.000000e+01
      vertex -1.100000e+01 -1.000000e+01 0.000000e+00
    endloop
  endfacet
  facet normal 9.961947e-01 8.715574e-02 0.000000e+00
    outer loop
      vertex -1.100000e+01 -1.000000e+01 0.000000e+00
      vertex -1.100000e+01 -1.000000e+01 1.000000e+01
      vertex -1.098481e+01 -1.017365e+01 0.000000e+00
    endloop
  endfacet
  facet normal 9.961947e-01 8.715574e-02 0.000000e+00
    outer loop
      vertex -1.098481e+01 -1.017365e+01 0.000000e+00
      vertex -1.100000e+01 -1.000000e+01 1.000000e+01
      vertex -1.098481e+01 -1.017365e+01 1.000000e+01
    endloop
  endfacet
  facet normal 9.659258e-01 2.588190e-01 0.000000e+00
    outer loop
      vertex -1.093969e+01 -1.034202e+01 0.000000e+00
      vertex -1.098481e+01 -1.017365e+01 1.000000e+01
      vertex -1.093969e+01 -1.034202e+01 1.000000e+01
    endloop
  endfacet
  facet normal 9.063078e-01 4.226183e-01 0.000000e+00
    outer loop
      vertex -1.086603e+01 -1.050000e+01 0.000000e+00
      vertex -1.093969e+01 -1.034202e+01 1.000000e+01
      vertex -1.086603e+01 -1.050000e+01 1.000000e+01
    endloop
  endfacet
  facet normal 8.191520e-01 5.735765e-01 0.000000e+00
    outer loop
      vertex -1.076604e+01 -1.064279e+01 0.000000e+00
      vertex -1.086603e+01 -1.050000e+01 1.000000e+01
      vertex -1.076604e+01 -1.064279e+01 1.000000e+01
    endloop
  endfacet
  facet normal 7.071068e-01 7.071068e-01 0.000000e+00
    outer loop
      vertex -1.064279e+01 -1.076604e+01 0.000000e+00
      vertex -1.076604e+01 -1.064279e+01 1.000000e+01
      vertex -1.064279e+01 -1.076604e+01 1.000000e+01
    endloop
  endfacet
  facet normal 5.735765e-01 8.191520e-01 0.000000e+00
    outer loop
      vertex -1.050000e+01 -1.086603e+01 0.000000e+00
      vertex -1.064279e+01 -1.076604e+01 1.000000e+01
      vertex -1.050000e+01 -1.086603e+01 1.000000e+01
    endloop
  endfacet
  facet normal 4.226183e-01 9.063078e-01 0.000000e+00
    outer loop
      vertex -1.034202e+01 -1.093969e+01 0.000000e+00
      vertex -1.050000e+01 -1.086603e+01 1.000000e+01
      vertex -1.034202e+01 -1.093969e+01 1.000000e+01
    endloop
  endfacet
  facet normal 2.588190e-01 9.659258e-01 0.000000e+00
    outer loop
      vertex -1.017365e+01 -1.098481e+01 0.000000e+00
      vertex -1.034202e+01 -1.093969e+01 1.000000e+01
      vertex -1.017365e+01 -1.098481e+01 1.000000e+01
    endloop
  endfacet
  facet normal 8.715574e-02 9.961947e-01 0.000000e+00
    outer loop
      vertex -1.000000e+01 -1.100000e+01 0.000000e+00
      vertex -1.017365e+01 -1.098481e+01 1.000000e+01
      vertex -1.000000e+01 -1.100000e+01 1.000000e+01
    endloop
  endfacet
  facet normal 8.715574e-02 9.961947e-01 0.000000e+00
    outer loop
      vertex -1.000000e+01 -1.100000e+01 0.000000e+00
      vertex -1.017365e+01 -1.098481e+01 0.000000e+00
      vertex -1.017365e+01 -1.098481e+01 1.000000e+01
    endloop
  endfacet
  facet normal 2.588190e-01 9.659258e-01 0.000000e+00
    outer loop
      vertex -1.017365e+01 -1.098481e+01 0.000000e+00
      vertex -1.034202e+01 -1.093969e+01 0.000000e+00
      vertex -1.034202e+01 -1.093969e+01 1.000000e+01
    endloop
  endfacet
  facet normal 4.226183e-01 9.063078e-01 0.000000e+00
    outer loop
      vertex -1.034202e+01 -1.093969e+01 0.000000e+00
      vertex -1.050000e+01 -1.086603e+01 0.000000e+00
      vertex -1.050000e+01 -1.086603e+01 1.000000e+01
    endloop
  endfacet
  facet normal 5.735765e-01 8.191520e-01 0.000000e+00
    outer loop
      vertex -1.050000e+01 -1.086603e+01 0.000000e+00
      vertex -1.064279e+01 -1.076604e+01 0.000000e+00
      vertex -1.064279e+01 -1.076604e+01 1.000000e+01
    endloop
  endfacet
  facet normal 7.071068e-01 7.071068e-01 0.000000e+00
    outer loop
      vertex -1.064279e+01 -1.076604e+01 0.000000e+00
      vertex -1.076604e+01 -1.064279e+01 0.000000e+00
      vertex -1.076604e+01 -1.064279e+01 1.000000e+01
    endloop
  endfacet
  facet normal 8.191520e-01 5.735765e-01 0.000000e+00
    outer loop
      vertex -1.076604e+01 -1.064279e+01 0.000000e+00
      vertex -1.086603e+01 -1.050000e+01 0.000000e+00
      vertex -1.086603e+01 -1.050000e+01 1.000000e+01
    endloop
  endfacet
  facet normal 9.063078e-01 4.226183e-01 0.000000e+00
    outer loop
      vertex -1.086603e+01 -1.050000e+01 0.000000e+00
      vertex -1.093969e+01 -1.034202e+01 0.000000e+00
      vertex -1.093969e+01 -1.034202e+01 1.000000e+01
    endloop
  endfacet
  facet normal 9.659258e-01 2.588190e-01 0.000000e+00
    outer loop
      vertex -1.093969e+01 -1.034202e+01 0.000000e+00
      vertex -1.098481e+01 -1.017365e+01 0.000000e+00
      vertex -1.098481e+01 -1.017365e+01 1.000000e+01
    endloop
  endfacet
  facet normal 2.220446e-16 1.000000e+00 0.000000e+00
    outer loop
      vertex -1.000000e+01 -1.100000e+01 1.000000e+01
      vertex 1.000000e+01 -1.100000e+01 1.000000e+01
      vertex -1.000000e+01 -1.100000e+01 0.000000e+00
    endloop
  endfacet
  facet normal 2.220446e-16 1.000000e+00 0.000000e+00
    outer loop
      vertex -1.000000e+01 -1.100000e+01 0.000000e+00
      vertex 1.000000e+01 -1.100000e+01 1.000000e+01
      vertex 1.000000e+01 -1.100000e+01 0.000000e+00
    endloop
  endfacet
  facet normal -8.715574e-02 9.961947e-01 0.000000e+00
    outer loop
      vertex 1.000000e+01 -1.100000e+01 0.000000e+00
      vertex 1.000000e+01 -1.100000e+01 1.000000e+01
      vertex 1.017365e+01 -1.098481e+01 0.000000e+00
    endloop
  endfacet
  facet normal -8.715574e-02 9.961947e-01 0.000000e+00
    outer loop
      vertex 1.017365e+01 -1.098481e+01 0.000000e+00
      vertex 1.000000e+01 -1.100000e+01 1.000000e+01
      vertex 1.017365e+01 -1.098481e+01 1.000000e+01
    endloop
  endfacet
  facet normal -2.588190e-01 9.659258e-01 0.000000e+00
    outer loop
      vertex 1.034202e+01 -1.093969e+01 0.000000e+00
      vertex 1.017365e+01 -1.098481e+01 1.000000e+01
      vertex 1.034202e+01 -1.093969e+01 1.000000e+01
    endloop
  endfacet
  facet normal -4.226183e-01 9.063078e-01 0.000000e+00
    outer loop
      vertex 1.050000e+01 -1.086603e+01 0.000000e+00
      vertex 1.034202e+01 -1.093969e+01 1.000000e+01
      vertex 1.050000e+01 -1.086603e+01 1.000000e+01
    endloop
  endfacet
  facet normal -5.735765e-01 8.191520e-01 0.000000e+00
    outer loop
      vertex 1.064279e+01 -1.076604e+01 0.000000e+00
      vertex 1.050000e+01 -1.086603e+01 1.000000e+01
      vertex 1.064279e+01 -1.076604e+01 1.000000e+01
    endloop
  endfacet
  facet normal -7.071068e-01 7.071068e-01 0.000000e+00
    outer loop
      vertex 1.076604e+01 -1.064279e+01 0.000000e+00
      vertex 1.064279e+01 -1.076604e+01 1.000000e+01
      vertex 1.076604e+01 -1.064279e+01 1.000000e+01
    endloop
  endfacet
  facet normal -8.191520e-01 5.735765e-01 0.000000e+00
    outer loop
      vertex 1.086603e+01 -1.050000e+01 0.000000e+00
      vertex 1.076604e+01 -1.064279e+01 1.000000e+01
      vertex 1.086603e+01 -1.050000e+01 1.000000e+01
    endloop
  endfacet
  facet normal -9.063078e-01 4.226183e-01 0.000000e+00
    outer loop
      vertex 1.093969e+01 -1.034202e+01 0.000000e+00
      vertex 1.086603e+01 -1.050000e+01 1.000000e+01
      vertex 1.093969e+01 -1.034202e+01 1.000000e+01
    endloop
  endfacet
  facet normal -9.659258e-01 2.588190e-01 0.000000e+00
    outer loop
      vertex 1.098481e+01 -1.017365e+01 0.000000e+00
      vertex 1.093969e+01 -1.034202e+01 1.000000e+01
      vertex 1.098481e+01 -1.017365e+01 1.000000e+01
    endloop
  endfacet
  facet normal -9.961947e-01 8.715574e-02 0.000000e+00
    outer loop
      vertex 1.100000e+01 -1.000000e+01 0.000000e+00
      vertex 1.098481e+01 -1.017365e+01 1.000000e+01
      vertex 1.100000e+01 -1.000000e+01 1.000000e+01
    endloop
  endfacet
  facet normal -9.961947e-01 8.715574e-02 0.000000e+00
    outer loop
      vertex 1.100000e+01 -1.000000e+01 0.000000e+00
      vertex 1.098481e+01 -1.017365e+01 0.000000e+00
      vertex 1.098481e+01 -1.017365e+01 1.000000e+01
    endloop
  endfacet
  facet normal -9.659258e-01 2.588190e-01 0.000000e+00
    outer loop
      vertex 1.098481e+01 -1.017365e+01 0.000000e+00
      vertex 1.093969e+01 -1.034202e+01 0.000000e+00
      vertex 1.093969e+01 -1.034202e+01 1.000000e+01
    endloop
  endfacet
  facet normal -9.063078e-01 4.226183e-01 0.000000e+00
    outer loop
      vertex 1.093969e+01 -1.034202e+01 0.000000e+00
      vertex 1.086603e+01 -1.050000e+01 0.000000e+00
      vertex 1.086603e+01 -1.050000e+01 1.000000e+01
    endloop
  endfacet
  facet normal -8.191520e-01 5.735765e-01 0.000000e+00
    outer loop
      vertex 1.086603e+01 -1.050000e+01 0.000000e+00
      vertex 1.076604e+01 -1.064279e+01 0.000000e+00
      vertex 1.076604e+01 -1.064279e+01 1.000000e+01
    endloop
  endfacet
  facet normal -7.071068e-01 7.071068e-01 0.000000e+00
    outer loop
      vertex 1.076604e+01 -1.064279e+01 0.000000e+00
      vertex 1.064279e+01 -1.076604e+01 0.000000e+00
      vertex 1.064279e+01 -1.076604e+01 1.000000e+01
    endloop
  endfacet
  facet normal -5.735765e-01 8.191520e-01 0.000000e+00
    outer loop
      vertex 1.064279e+01 -1.076604e+01 0.000000e+00
      vertex 1.050000e+01 -1.086603e+01 0.000000e+00
      vertex 1.050000e+01 -1.086603e+01 1.000000e+01
    endloop
  endfacet
  facet normal -4.226183e-01 9.063078e-01 0.000000e+00
    outer loop
      vertex 1.050000e+01 -1.086603e+01 0.000000e+00
      vertex 1.034202e+01 -1.093969e+01 0.000000e+00
      vertex 1.034202e+01 -1.093969e+01 1.000000e+01
    endloop
  endfacet
  facet normal -2.588190e-01 9.659258e-01 0.000000e+00
    outer loop
      vertex 1.034202e+01 -1.093969e+01 0.000000e+00
      vertex 1.017365e+01 -1.098481e+01 0.000000e+00
      vertex 1.017365e+01 -1.098481e+01 1.000000e+01
    endloop
  endfacet
  facet normal -1.000000e+00 -2.220446e-16 0.000000e+00
    outer loop
      vertex 1.100000e+01 -1.000000e+01 1.000000e+01
      vertex 1.100000e+01 1.000000e+01 1.000000e+01
      vertex 1.100000e+01 -1.000000e+01 0.000000e+00
    endloop
  endfacet
  facet normal -1.000000e+00 -2.220446e-16 -0.000000e+00
    outer loop
      vertex 1.100000e+01 -1.000000e+01 0.000000e+00
      vertex 1.100000e+01 1.000000e+01 1.000000e+01
      vertex 1.100000e+01 1.000000e+01 0.000000e+00
    endloop
  endfacet
  facet normal -9.961947e-01 -8.715574e-02 0.000000e+00
    outer loop
      vertex 1.100000e+01 1.000000e+01 0.000000e+00
      vertex 1.100000e+01 1.000000e+01 1.000000e+01
      vertex 1.098481e+01 1.017365e+01 0.000000e+00
    endloop
  endfacet
  facet normal -9.961947e-01 -8.715574e-02 0.000000e+00
    outer loop
      vertex 1.098481e+01 1.017365e+01 0.000000e+00
      vertex 1.100000e+01 1.000000e+01 1.000000e+01
      vertex 1.098481e+01 1.017365e+01 1.000000e+01
    endloop
  endfacet
  facet normal -9.659258e-01 -2.588190e-01 0.000000e+00
    outer loop
      vertex 1.093969e+01 1.034202e+01 0.000000e+00
      vertex 1.098481e+01 1.017365e+01 1.000000e+01
      vertex 1.093969e+01 1.034202e+01 1.000000e+01
    endloop
  endfacet
  facet normal -9.063078e-01 -4.226183e-01 0.000000e+00
    outer loop
      vertex 1.086603e+01 1.050000e+01 0.000000e+00
      vertex 1.093969e+01 1.034202e+01 1.000000e+01
      vertex 1.086603e+01 1.050000e+01 1.000000e+01
    endloop
  endfacet
  facet normal -8.191520e-01 -5.735765e-01 0.000000e+00
    outer loop
      vertex 1.076604e+01 1.064279e+01 0.000000e+00
      vertex 1.086603e+01 1.050000e+01 1.000000e+01
      vertex 1.076604e+01 1.064279e+01 1.000000e+01
    endloop
  endfacet
  facet normal -7.071068e-01 -7.071068e-01 0.000000e+00
    outer loop
      vertex 1.064279e+01 1.076604e+01 0.000000e+00
      vertex 1.076604e+01 1.064279e+01 1.000000e+01
      vertex 1.064279e+01 1.076604e+01 1.000000e+01
    endloop
  endfacet
  facet normal -5.735765e-01 -8.191520e-01 0.000000e+00
    outer loop
      vertex 1.050000e+01 1.086603e+01 0.000000e+00
      vertex 1.064279e+01 1.076604e+01 1.000000e+01
      vertex 1.050000e+01 1.086603e+01 1.000000e+01
    endloop
  endfacet
  facet normal -4.226183e-01 -9.063078e-01 0.000000e+00
    outer loop
      vertex 1.034202e+01 1.093969e+01 0.000000e+00
      vertex 1.050000e+01 1.086603e+01 1.000000e+01
      vertex 1.034202e+01 1.093969e+01 1.000000e+01
    endloop
  endfacet
  facet normal -2.588190e-01 -9.659258e-01 0.000000e+00
    outer loop
      vertex 1.017365e+01 1.098481e+01 0.000000e+00
      vertex 1.034202e+01 1.093969e+01 1.000000e+01
      vertex 1.017365e+01 1.098481e+01 1.000000e+01
    endloop
  endfacet
  facet normal -8.715574e-02 -9.961947e-01 0.000000e+00
    outer loop
      vertex 1.000000e+01 1.100000e+01 0.000000e+00
      vertex 1.017365e+01 1.098481e+01 1.000000e+01
      vertex 1.000000e+01 1.100000e+01 1.000000e+01
    endloop
  endfacet
  facet normal -8.715574e-02 -9.961947e-01 0.000000e+00
    outer loop
      vertex 1.000000e+01 1.100000e+01 0.000000e+00
      vertex 1.017365e+01 1.098481e+01 0.000000e+00
      vertex 1.017365e+01 1.098481e+01 1.000000e+01
    endloop
  endfacet
  facet normal -2.588190e-01 -9.659258e-01 0.000000e+00
    outer loop
      vertex 1.017365e+01 1.098481e+01 0.000000e+00
      vertex 1.034202e+01 1.093969e+01 0.000000e+00
      vertex 1.034202e+01 1.093969e+01 1.000000e+01
    endloop
  endfacet
  facet normal -4.226183e-01 -9.063078e-01 0.000000e+00
    outer loop
      vertex 1.034202e+01 1.093969e+01 0.000000e+00
      vertex 1.050000e+01 1.086603e+01 0.000000e+00
      vertex 1.050000e+01 1.086603e+01 1.000000e+01
    endloop
  endfacet
  facet normal -5.735765e-01 -8.191520e-01 0.000000e+00
    outer loop
      vertex 1.050000e+01 1.086603e+01 0.000000e+00
      vertex 1.064279e+01 1.076604e+01 0.000000e+00
      vertex 1.064279e+01 1.076604e+01 1.000000e+01
    endloop
  endfacet
  facet normal -7.071068e-01 -7.071068e-01 0.000000e+00
    outer loop
      vertex 1.064279e+01 1.076604e+01 0.000000e+00
      vertex 1.076604e+01 1.064279e+01 0.000000e+00
      vertex 1.076604e+01 1.064279e+01 1.000000e+01
    endloop
  endfacet
  facet normal -8.191520e-01 -5.735765e-01 0.000000e+00
    outer loop
      vertex 1.076604e+01 1.064279e+01 0.000000e+00
      vertex 1.086603e+01 1.050000e+01 0.000000e+00
      vertex 1.086603e+01 1.050000e+01 1.000000e+01
    endloop
  endfacet
  facet normal -9.063078e-01 -4.226183e-01 0.000000e+00
    outer loop
      vertex 1.086603e+01 1.050000e+01 0.000000e+00
      vertex 1.093969e+01 1.034202e+01 0.000000e+00
      vertex 1.093969e+01 1.034202e+01 1.000000e+01
    endloop
  endfacet
  facet normal -9.659258e-01 -2.588190e-01 0.000000e+00
    outer loop
      vertex 1.093969e+01 1.034202e+01 0.000000e+00
      vertex 1.098481e+01 1.017365e+01 0.000000e+00
      vertex 1.098481e+01 1.017365e+01 1.000000e+01
    endloop
  endfacet
  facet normal -2.220446e-16 -1.000000e+00 0.000000e+00
    outer loop
      vertex 1.000000e+01 1.100000e+01 1.000000e+01
      vertex -1.000000e+01 1.100000e+01 1.000000e+01
      vertex 1.000000e+01 1.100000e+01 0.000000e+00
    endloop
  endfacet
  facet normal -2.220446e-16 -1.000000e+00 -0.000000e+00
    outer loop
      vertex 1.000000e+01 1.100000e+01 0.000000e+00
      vertex -1.000000e+01 1.100000e+01 1.000000e+01
      vertex -1.000000e+01 1.100000e+01 0.000000e+00
    endloop
  endfacet
  facet normal 0.000000e+00 0.000000e+00 1.000000e+00
    outer loop
      vertex -1.100000e+01 -1.000000e+01 1.000000e+01
      vertex -1.100000e+01 1.000000e+01 1.000000e+01
      vertex -1.125000e+01 1.000000e+01 1.000000e+01
    endloop
  endfacet
  facet normal 0.000000e+00 0.000000e+00 1.000000e+00
    outer loop
      vertex -1.125000e+01 -1.000000e+01 1.000000e+01
      vertex -1.100000e+01 -1.000000e+01 1.000000e+01
      vertex -1.125000e+01 1.000000e+01 1.000000e+01
    endloop
  endfacet
  facet normal 0.000000e+00 0.000000e+00 1.000000e+00
    outer loop
      vertex -1.125000e+01 -1.000000e+01 1.000000e+01
      vertex -1.098481e+01 -1.017365e+01 1.000000e+01
      vertex -1.100000e+01 -1.000000e+01 1.000000e+01
    endloop
  endfacet
  facet normal 0.000000e+00 0.000000e+00 1.000000e+00
    outer loop
      vertex -1.125000e+01 -1.000000e+01 1.000000e+01
      vertex -1.123101e+01 -1.021706e+01 1.000000e+01
      vertex -1.098481e+01 -1.017365e+01 1.000000e+01
    endloop
  endfacet
  facet normal 0.000000e+00 0.000000e+00 1.000000e+00
    outer loop
      vertex -1.098481e+01 -1.017365e+01 1.000000e+01
      vertex -1.123101e+01 -1.021706e+01 1.000000e+01
      vertex -1.093969e+01 -1.034202e+01 1.000000e+01
    endloop
  endfacet
  facet normal 0.000000e+00 0.000000e+00 1.000000e+00
    outer loop
      vertex -1.093969e+01 -1.034202e+01 1.000000e+01
      vertex -1.123101e+01 -1.021706e+01 1.000000e+01
      vertex -1.117462e+01 -1.042753e+01 1.000000e+01
    endloop
  endfacet
  facet normal 0.000000e+00 0.000000e+00 1.000000e+00
    outer loop
      vertex -1.086603e+01 -1.050000e+01 1.000000e+01
      vertex -1.117462e+01 -1.042753e+01 1.000000e+01
      vertex -1.108253e+01 -1.062500e+01 1.000000e+01
    endloop
  endfacet
  facet normal 0.000000e+00 0.000000e+00 1.000000e+00
    outer loop
      vertex -1.076604e+01 -1.064279e+01 1.000000e+01
      vertex -1.108253e+01 -1.062500e+01 1.000000e+01
      vertex -1.095756e+01 -1.080348e+01 1.000000e+01
    endloop
  endfacet
  facet normal 0.000000e+00 0.000000e+00 1.000000e+00
    outer loop
      vertex -1.064279e+01 -1.076604e+01 1.000000e+01
      vertex -1.095756e+01 -1.080348e+01 1.000000e+01
      vertex -1.080348e+01 -1.095756e+01 1.000000e+01
    endloop
  endfacet
  facet normal 0.000000e+00 0.000000e+00 1.000000e+00
    outer loop
      vertex -1.050000e+01 -1.086603e+01 1.000000e+01
      vertex -1.080348e+01 -1.095756e+01 1.000000e+01
      vertex -1.062500e+01 -1.108253e+01 1.000000e+01
    endloop
  endfacet
  facet normal 0.000000e+00 0.000000e+00 1.000000e+00
    outer loop
      vertex -1.034202e+01 -1.093969e+01 1.000000e+01
      vertex -1.062500e+01 -1.108253e+01 1.000000e+01
      vertex -1.017365e+01 -1.098481e+01 1.000000e+01
    endloop
  endfacet
  facet normal 0.000000e+00 0.000000e+00 1.000000e+00
    outer loop
      vertex -1.034202e+01 -1.093969e+01 1.000000e+01
      vertex -1.050000e+01 -1.086603e+01 1.000000e+01
      vertex -1.062500e+01 -1.108253e+01 1.000000e+01
    endloop
  endfacet
  facet normal 0.000000e+00 0.000000e+00 1.000000e+00
    outer loop
      vertex -1.034202e+01 1.093969e+01 1.000000e+01
      vertex -1.062500e+01 1.108253e+01 1.000000e+01
      vertex -1.050000e+01 1.086603e+01 1.000000e+01
    endloop
  endfacet
  facet normal 0.000000e+00 0.000000e+00 1.000000e+00
    outer loop
      vertex -1.034202e+01 1.093969e+01 1.000000e+01
      vertex -1.017365e+01 1.098481e+01 1.000000e+01
      vertex -1.062500e+01 1.108253e+01 1.000000e+01
    endloop
  endfacet
  facet normal 0.000000e+00 0.000000e+00 1.000000e+00
    outer loop
      vertex -1.062500e+01 1.108253e+01 1.000000e+01
      vertex -1.017365e+01 1.098481e+01 1.000000e+01
      vertex -1.000000e+01 1.100000e+01 1.000000e+01
    endloop
  endfacet
  facet normal 0.000000e+00 0.000000e+00 1.000000e+00
    outer loop
      vertex 1.000000e+01 1.100000e+01 1.000000e+01
      vertex -1.062500e+01 1.108253e+01 1.000000e+01
      vertex -1.000000e+01 1.100000e+01 1.000000e+01
    endloop
  endfacet
  facet normal 0.000000e+00 0.000000e+00 1.000000e+00
    outer loop
      vertex 1.000000e+01 1.100000e+01 1.000000e+01
      vertex 1.062500e+01 1.108253e+01 1.000000e+01
      vertex -1.062500e+01 1.108253e+01 1.000000e+01
    endloop
  endfacet
  facet normal 0.000000e+00 0.000000e+00 1.000000e+00
    outer loop
      vertex 1.000000e+01 1.100000e+01 1.000000e+01
      vertex 1.017365e+01 1.098481e+01 1.000000e+01
      vertex 1.062500e+01 1.108253e+01 1.000000e+01
    endloop
  endfacet
  facet normal 0.000000e+00 0.000000e+00 1.000000e+00
    outer loop
      vertex 1.062500e+01 1.108253e+01 1.000000e+01
      vertex 1.017365e+01 1.098481e+01 1.000000e+01
      vertex 1.034202e+01 1.093969e+01 1.000000e+01
    endloop
  endfacet
  facet normal 0.000000e+00 0.000000e+00 1.000000e+00
    outer loop
      vertex 1.050000e+01 1.086603e+01 1.000000e+01
      vertex 1.062500e+01 1.108253e+01 1.000000e+01
      vertex 1.034202e+01 1.093969e+01 1.000000e+01
    endloop
  endfacet
  facet normal 0.000000e+00 0.000000e+00 1.000000e+00
    outer loop
      vertex 1.050000e+01 1.086603e+01 1.000000e+01
      vertex 1.080348e+01 1.095756e+01 1.000000e+01
      vertex 1.062500e+01 1.108253e+01 1.000000e+01
    endloop
  endfacet
  facet normal 0.000000e+00 0.000000e+00 1.000000e+00
    outer loop
      vertex 1.050000e+01 1.086603e+01 1.000000e+01
      vertex 1.064279e+01 1.076604e+01 1.000000e+01
      vertex 1.080348e+01 1.095756e+01 1.000000e+01
    endloop
  endfacet
  facet normal 0.000000e+00 0.000000e+00 1.000000e+00
    outer loop
      vertex 1.080348e+01 1.095756e+01 1.000000e+01
      vertex 1.064279e+01 1.076604e+01 1.000000e+01
      vertex 1.095756e+01 1.080348e+01 1.000000e+01
    endloop
  endfacet
  facet normal 0.000000e+00 0.000000e+00 1.000000e+00
    outer loop
      vertex 1.095756e+01 1.080348e+01 1.000000e+01
      vertex 1.064279e+01 1.076604e+01 1.000000e+01
      vertex 1.076604e+01 1.064279e+01 1.000000e+01
    endloop
  endfacet
  facet normal 0.000000e+00 0.000000e+00 1.000000e+00
    outer loop
      vertex 1.108253e+01 1.062500e+01 1.000000e+01
      vertex 1.076604e+01 1.064279e+01 1.000000e+01
      vertex 1.086603e+01 1.050000e+01 1.000000e+01
    endloop
  endfacet
  facet normal 0.000000e+00 0.000000e+00 1.000000e+00
    outer loop
      vertex 1.117462e+01 1.042753e+01 1.000000e+01
      vertex 1.086603e+01 1.050000e+01 1.000000e+01
      vertex 1.093969e+01 1.034202e+01 1.000000e+01
    endloop
  endfacet
  facet normal 0.000000e+00 0.000000e+00 1.000000e+00
    outer loop
      vertex 1.123101e+01 1.021706e+01 1.000000e+01
      vertex 1.093969e+01 1.034202e+01 1.000000e+01
      vertex 1.098481e+01 1.017365e+01 1.000000e+01
    endloop
  endfacet
  facet normal 0.000000e+00 0.000000e+00 1.000000e+00
    outer loop
      vertex 1.125000e+01 1.000000e+01 1.000000e+01
      vertex 1.098481e+01 1.017365e+01 1.000000e+01
      vertex 1.100000e+01 1.000000e+01 1.000000e+01
    endloop
  endfacet
  facet normal 0.000000e+00 0.000000e+00 1.000000e+00
    outer loop
      vertex 1.125000e+01 -1.000000e+01 1.000000e+01
      vertex 1.100000e+01 1.000000e+01 1.000000e+01
      vertex 1.100000e+01 -1.000000e+01 1.000000e+01
    endloop
  endfacet
  facet normal 0.000000e+00 0.000000e+00 1.000000e+00
    outer loop
      vertex 1.123101e+01 -1.021706e+01 1.000000e+01
      vertex 1.100000e+01 -1.000000e+01 1.000000e+01
      vertex 1.098481e+01 -1.017365e+01 1.000000e+01
    endloop
  endfacet
  facet normal 0.000000e+00 0.000000e+00 1.000000e+00
    outer loop
      vertex 1.093969e+01 -1.034202e+01 1.000000e+01
      vertex 1.123101e+01 -1.021706e+01 1.000000e+01
      vertex 1.098481e+01 -1.017365e+01 1.000000e+01
    endloop
  endfacet
  facet normal 0.000000e+00 0.000000e+00 1.000000e+00
    outer loop
      vertex 1.093969e+01 -1.034202e+01 1.000000e+01
      vertex 1.117462e+01 -1.042753e+01 1.000000e+01
      vertex 1.123101e+01 -1.021706e+01 1.000000e+01
    endloop
  endfacet
  facet normal 0.000000e+00 0.000000e+00 1.000000e+00
    outer loop
      vertex 1.093969e+01 -1.034202e+01 1.000000e+01
      vertex 1.086603e+01 -1.050000e+01 1.000000e+01
      vertex 1.117462e+01 -1.042753e+01 1.000000e+01
    endloop
  endfacet
  facet normal 0.000000e+00 0.000000e+00 1.000000e+00
    outer loop
      vertex 1.117462e+01 -1.042753e+01 1.000000e+01
      vertex 1.086603e+01 -1.050000e+01 1.000000e+01
      vertex 1.108253e+01 -1.062500e+01 1.000000e+01
    endloop
  endfacet
  facet normal 0.000000e+00 0.000000e+00 1.000000e+00
    outer loop
      vertex 1.108253e+01 -1.062500e+01 1.000000e+01
      vertex 1.086603e+01 -1.050000e+01 1.000000e+01
      vertex 1.076604e+01 -1.064279e+01 1.000000e+01
    endloop
  endfacet
  facet normal 0.000000e+00 0.000000e+00 1.000000e+00
    outer loop
      vertex 1.095756e+01 -1.080348e+01 1.000000e+01
      vertex 1.076604e+01 -1.064279e+01 1.000000e+01
      vertex 1.064279e+01 -1.076604e+01 1.000000e+01
    endloop
  endfacet
  facet normal 0.000000e+00 0.000000e+00 1.000000e+00
    outer loop
      vertex 1.080348e+01 -1.095756e+01 1.000000e+01
      vertex 1.064279e+01 -1.076604e+01 1.000000e+01
      vertex 1.050000e+01 -1.086603e+01 1.000000e+01
    endloop
  endfacet
  facet normal 0.000000e+00 0.000000e+00 1.000000e+00
    outer loop
      vertex 1.062500e+01 -1.108253e+01 1.000000e+01
      vertex 1.050000e+01 -1.086603e+01 1.000000e+01
      vertex 1.034202e+01 -1.093969e+01 1.000000e+01
    endloop
  endfacet
  facet normal 0.000000e+00 0.000000e+00 1.000000e+00
    outer loop
      vertex 1.017365e+01 -1.098481e+01 1.000000e+01
      vertex 1.062500e+01 -1.108253e+01 1.000000e+01
      vertex 1.034202e+01 -1.093969e+01 1.000000e+01
    endloop
  endfacet
  facet normal 0.000000e+00 0.000000e+00 1.000000e+00
    outer loop
      vertex 1.017365e+01 -1.098481e+01 1.000000e+01
      vertex 1.000000e+01 -1.100000e+01 1.000000e+01
      vertex 1.062500e+01 -1.108253e+01 1.000000e+01
    endloop
  endfacet
  facet normal 0.000000e+00 0.000000e+00 1.000000e+00
    outer loop
      vertex 1.062500e+01 -1.108253e+01 1.000000e+01
      vertex 1.000000e+01 -1.100000e+01 1.000000e+01
      vertex -1.000000e+01 -1.100000e+01 1.000000e+01
    endloop
  endfacet
  facet normal 0.000000e+00 0.000000e+00 1.000000e+00
    outer loop
      vertex -1.062500e+01 -1.108253e+01 1.000000e+01
      vertex -1.000000e+01 -1.100000e+01 1.000000e+01
      vertex -1.017365e+01 -1.098481e+01 1.000000e+01
    endloop
  endfacet
  facet normal 0.000000e+00 0.000000e+00 1.000000e+00
    outer loop
      vertex -1.062500e+01 -1.108253e+01 1.000000e+01
      vertex 1.062500e+01 -1.108253e+01 1.000000e+01
      vertex -1.000000e+01 -1.100000e+01 1.000000e+01
    endloop
  endfacet
  facet normal 0.000000e+00 0.000000e+00 1.000000e+00
    outer loop
      vertex -1.062500e+01 -1.108253e+01 1.000000e+01
      vertex 1.042753e+01 -1.117462e+01 1.000000e+01
      vertex 1.062500e+01 -1.108253e+01 1.000000e+01
    endloop
  endfacet
  facet normal 0.000000e+00 0.000000e+00 1.000000e+00
    outer loop
      vertex -1.062500e+01 -1.108253e+01 1.000000e+01
      vertex -1.042753e+01 -1.117462e+01 1.000000e+01
      vertex 1.042753e+01 -1.117462e+01 1.000000e+01
    endloop
  endfacet
  facet normal 0.000000e+00 0.000000e+00 1.000000e+00
    outer loop
      vertex 1.042753e+01 -1.117462e+01 1.000000e+01
      vertex -1.042753e+01 -1.117462e+01 1.000000e+01
      vertex 1.021706e+01 -1.123101e+01 1.000000e+01
    endloop
  endfacet
  facet normal 0.000000e+00 0.000000e+00 1.000000e+00
    outer loop
      vertex 1.021706e+01 -1.123101e+01 1.000000e+01
      vertex -1.042753e+01 -1.117462e+01 1.000000e+01
      vertex -1.021706e+01 -1.123101e+01 1.000000e+01
    endloop
  endfacet
  facet normal 0.000000e+00 0.000000e+00 1.000000e+00
    outer loop
      vertex 1.000000e+01 -1.125000e+01 1.000000e+01
      vertex -1.021706e+01 -1.123101e+01 1.000000e+01
      vertex -1.000000e+01 -1.125000e+01 1.000000e+01
    endloop
  endfacet
  facet normal 0.000000e+00 0.000000e+00 1.000000e+00
    outer loop
      vertex 1.000000e+01 -1.125000e+01 1.000000e+01
      vertex 1.021706e+01 -1.123101e+01 1.000000e+01
      vertex -1.021706e+01 -1.123101e+01 1.000000e+01
    endloop
  endfacet
  facet normal 0.000000e+00 0.000000e+00 1.000000e+00
    outer loop
      vertex -1.050000e+01 1.086603e+01 1.000000e+01
      vertex -1.080348e+01 1.095756e+01 1.000000e+01
      vertex -1.064279e+01 1.076604e+01 1.000000e+01
    endloop
  endfacet
  facet normal 0.000000e+00 0.000000e+00 1.000000e+00
    outer loop
      vertex -1.050000e+01 1.086603e+01 1.000000e+01
      vertex -1.062500e+01 1.108253e+01 1.000000e+01
      vertex -1.080348e+01 1.095756e+01 1.000000e+01
    endloop
  endfacet
  facet normal 0.000000e+00 0.000000e+00 1.000000e+00
    outer loop
      vertex -1.064279e+01 1.076604e+01 1.000000e+01
      vertex -1.095756e+01 1.080348e+01 1.000000e+01
      vertex -1.076604e+01 1.064279e+01 1.000000e+01
    endloop
  endfacet
  facet normal 0.000000e+00 0.000000e+00 1.000000e+00
    outer loop
      vertex -1.064279e+01 1.076604e+01 1.000000e+01
      vertex -1.080348e+01 1.095756e+01 1.000000e+01
      vertex -1.095756e+01 1.080348e+01 1.000000e+01
    endloop
  endfacet
  facet normal 0.000000e+00 0.000000e+00 1.000000e+00
    outer loop
      vertex -1.050000e+01 -1.086603e+01 1.000000e+01
      vertex -1.064279e+01 -1.076604e+01 1.000000e+01
      vertex -1.080348e+01 -1.095756e+01 1.000000e+01
    endloop
  endfacet
  facet normal 0.000000e+00 0.000000e+00 1.000000e+00
    outer loop
      vertex -1.064279e+01 -1.076604e+01 1.000000e+01
      vertex -1.076604e+01 -1.064279e+01 1.000000e+01
      vertex -1.095756e+01 -1.080348e+01 1.000000e+01
    endloop
  endfacet
  facet normal 0.000000e+00 0.000000e+00 1.000000e+00
    outer loop
      vertex -1.076604e+01 -1.064279e+01 1.000000e+01
      vertex -1.086603e+01 -1.050000e+01 1.000000e+01
      vertex -1.108253e+01 -1.062500e+01 1.000000e+01
    endloop
  endfacet
  facet normal 0.000000e+00 0.000000e+00 1.000000e+00
    outer loop
      vertex -1.086603e+01 -1.050000e+01 1.000000e+01
      vertex -1.093969e+01 -1.034202e+01 1.000000e+01
      vertex -1.117462e+01 -1.042753e+01 1.000000e+01
    endloop
  endfacet
  facet normal 0.000000e+00 0.000000e+00 1.000000e+00
    outer loop
      vertex 1.125000e+01 1.000000e+01 1.000000e+01
      vertex 1.123101e+01 1.021706e+01 1.000000e+01
      vertex 1.098481e+01 1.017365e+01 1.000000e+01
    endloop
  endfacet
  facet normal 0.000000e+00 0.000000e+00 1.000000e+00
    outer loop
      vertex 1.123101e+01 1.021706e+01 1.000000e+01
      vertex 1.117462e+01 1.042753e+01 1.000000e+01
      vertex 1.093969e+01 1.034202e+01 1.000000e+01
    endloop
  endfacet
  facet normal 0.000000e+00 0.000000e+00 1.000000e+00
    outer loop
      vertex 1.117462e+01 1.042753e+01 1.000000e+01
      vertex 1.108253e+01 1.062500e+01 1.000000e+01
      vertex 1.086603e+01 1.050000e+01 1.000000e+01
    endloop
  endfacet
  facet normal 0.000000e+00 0.000000e+00 1.000000e+00
    outer loop
      vertex 1.108253e+01 1.062500e+01 1.000000e+01
      vertex 1.095756e+01 1.080348e+01 1.000000e+01
      vertex 1.076604e+01 1.064279e+01 1.000000e+01
    endloop
  endfacet
  facet normal 0.000000e+00 0.000000e+00 1.000000e+00
    outer loop
      vertex -1.062500e+01 1.108253e+01 1.000000e+01
      vertex 1.062500e+01 1.108253e+01 1.000000e+01
      vertex -1.042753e+01 1.117462e+01 1.000000e+01
    endloop
  endfacet
  facet normal 0.000000e+00 0.000000e+00 1.000000e+00
    outer loop
      vertex -1.042753e+01 1.117462e+01 1.000000e+01
      vertex 1.062500e+01 1.108253e+01 1.000000e+01
      vertex 1.042753e+01 1.117462e+01 1.000000e+01
    endloop
  endfacet
  facet normal 0.000000e+00 0.000000e+00 1.000000e+00
    outer loop
      vertex -1.021706e+01 1.123101e+01 1.000000e+01
      vertex 1.042753e+01 1.117462e+01 1.000000e+01
      vertex 1.021706e+01 1.123101e+01 1.000000e+01
    endloop
  endfacet
  facet normal 0.000000e+00 0.000000e+00 1.000000e+00
    outer loop
      vertex -1.000000e+01 1.125000e+01 1.000000e+01
      vertex 1.021706e+01 1.123101e+01 1.000000e+01
      vertex 1.000000e+01 1.125000e+01 1.000000e+01
    endloop
  endfacet
  facet normal 0.000000e+00 0.000000e+00 1.000000e+00
    outer loop
      vertex -1.000000e+01 1.125000e+01 1.000000e+01
      vertex -1.021706e+01 1.123101e+01 1.000000e+01
      vertex 1.021706e+01 1.123101e+01 1.000000e+01
    endloop
  endfacet
  facet normal 0.000000e+00 0.000000e+00 1.000000e+00
    outer loop
      vertex -1.021706e+01 1.123101e+01 1.000000e+01
      vertex -1.042753e+01 1.117462e+01 1.000000e+01
      vertex 1.042753e+01 1.117462e+01 1.000000e+01
    endloop
  endfacet
  facet normal 0.000000e+00 0.000000e+00 1.000000e+00
    outer loop
      vertex -1.095756e+01 1.080348e+01 1.000000e+01
      vertex -1.108253e+01 1.062500e+01 1.000000e+01
      vertex -1.076604e+01 1.064279e+01 1.000000e+01
    endloop
  endfacet
  facet normal 0.000000e+00 0.000000e+00 1.000000e+00
    outer loop
      vertex -1.076604e+01 1.064279e+01 1.000000e+01
      vertex -1.108253e+01 1.062500e+01 1.000000e+01
      vertex -1.086603e+01 1.050000e+01 1.000000e+01
    endloop
  endfacet
  facet normal 0.000000e+00 0.000000e+00 1.000000e+00
    outer loop
      vertex -1.086603e+01 1.050000e+01 1.000000e+01
      vertex -1.108253e+01 1.062500e+01 1.000000e+01
      vertex -1.117462e+01 1.042753e+01 1.000000e+01
    endloop
  endfacet
  facet normal 0.000000e+00 0.000000e+00 1.000000e+00
    outer loop
      vertex -1.093969e+01 1.034202e+01 1.000000e+01
      vertex -1.117462e+01 1.042753e+01 1.000000e+01
      vertex -1.123101e+01 1.021706e+01 1.000000e+01
    endloop
  endfacet
  facet normal 0.000000e+00 0.000000e+00 1.000000e+00
    outer loop
      vertex -1.098481e+01 1.017365e+01 1.000000e+01
      vertex -1.123101e+01 1.021706e+01 1.000000e+01
      vertex -1.125000e+01 1.000000e+01 1.000000e+01
    endloop
  endfacet
  facet normal 0.000000e+00 0.000000e+00 1.000000e+00
    outer loop
      vertex -1.100000e+01 1.000000e+01 1.000000e+01
      vertex -1.098481e+01 1.017365e+01 1.000000e+01
      vertex -1.125000e+01 1.000000e+01 1.000000e+01
    endloop
  endfacet
  facet normal 0.000000e+00 0.000000e+00 1.000000e+00
    outer loop
      vertex 1.062500e+01 -1.108253e+01 1.000000e+01
      vertex 1.080348e+01 -1.095756e+01 1.000000e+01
      vertex 1.050000e+01 -1.086603e+01 1.000000e+01
    endloop
  endfacet
  facet normal 0.000000e+00 0.000000e+00 1.000000e+00
    outer loop
      vertex 1.080348e+01 -1.095756e+01 1.000000e+01
      vertex 1.095756e+01 -1.080348e+01 1.000000e+01
      vertex 1.064279e+01 -1.076604e+01 1.000000e+01
    endloop
  endfacet
  facet normal 0.000000e+00 0.000000e+00 1.000000e+00
    outer loop
      vertex 1.095756e+01 -1.080348e+01 1.000000e+01
      vertex 1.108253e+01 -1.062500e+01 1.000000e+01
      vertex 1.076604e+01 -1.064279e+01 1.000000e+01
    endloop
  endfacet
  facet normal 0.000000e+00 0.000000e+00 1.000000e+00
    outer loop
      vertex 1.123101e+01 -1.021706e+01 1.000000e+01
      vertex 1.125000e+01 -1.000000e+01 1.000000e+01
      vertex 1.100000e+01 -1.000000e+01 1.000000e+01
    endloop
  endfacet
  facet normal 0.000000e+00 0.000000e+00 1.000000e+00
    outer loop
      vertex 1.125000e+01 -1.000000e+01 1.000000e+01
      vertex 1.125000e+01 1.000000e+01 1.000000e+01
      vertex 1.100000e+01 1.000000e+01 1.000000e+01
    endloop
  endfacet
  facet normal 0.000000e+00 0.000000e+00 1.000000e+00
    outer loop
      vertex -1.123101e+01 1.021706e+01 1.000000e+01
      vertex -1.098481e+01 1.017365e+01 1.000000e+01
      vertex -1.093969e+01 1.034202e+01 1.000000e+01
    endloop
  endfacet
  facet normal 0.000000e+00 0.000000e+00 1.000000e+00
    outer loop
      vertex -1.117462e+01 1.042753e+01 1.000000e+01
      vertex -1.093969e+01 1.034202e+01 1.000000e+01
      vertex -1.086603e+01 1.050000e+01 1.000000e+01
    endloop
  endfacet
  facet normal 0.000000e+00 0.000000e+00 -1.000000e+00
    outer loop
      vertex 1.017365e+01 1.098481e+01 0.000000e+00
      vertex 1.000000e+01 1.100000e+01 0.000000e+00
      vertex 1.062500e+01 1.108253e+01 0.000000e+00
    endloop
  endfacet
  facet normal 0.000000e+00 0.000000e+00 -1.000000e+00
    outer loop
      vertex 1.034202e+01 1.093969e+01 0.000000e+00
      vertex 1.062500e+01 1.108253e+01 0.000000e+00
      vertex 1.050000e+01 1.086603e+01 0.000000e+00
    endloop
  endfacet
  facet normal 0.000000e+00 0.000000e+00 -1.000000e+00
    outer loop
      vertex 1.034202e+01 1.093969e+01 0.000000e+00
      vertex 1.017365e+01 1.098481e+01 0.000000e+00
      vertex 1.062500e+01 1.108253e+01 0.000000e+00
    endloop
  endfacet
  facet normal 0.000000e+00 0.000000e+00 -1.000000e+00
    outer loop
      vertex -1.017365e+01 1.098481e+01 0.000000e+00
      vertex -1.062500e+01 1.108253e+01 0.000000e+00
      vertex -1.000000e+01 1.100000e+01 0.000000e+00
    endloop
  endfacet
  facet normal 0.000000e+00 0.000000e+00 -1.000000e+00
    outer loop
      vertex -1.017365e+01 1.098481e+01 0.000000e+00
      vertex -1.034202e+01 1.093969e+01 0.000000e+00
      vertex -1.062500e+01 1.108253e+01 0.000000e+00
    endloop
  endfacet
  facet normal 0.000000e+00 0.000000e+00 -1.000000e+00
    outer loop
      vertex -1.062500e+01 1.108253e+01 0.000000e+00
      vertex -1.034202e+01 1.093969e+01 0.000000e+00
      vertex -1.050000e+01 1.086603e+01 0.000000e+00
    endloop
  endfacet
  facet normal 0.000000e+00 0.000000e+00 -1.000000e+00
    outer loop
      vertex -1.080348e+01 1.095756e+01 0.000000e+00
      vertex -1.050000e+01 1.086603e+01 0.000000e+00
      vertex -1.064279e+01 1.076604e+01 0.000000e+00
    endloop
  endfacet
  facet normal 0.000000e+00 0.000000e+00 -1.000000e+00
    outer loop
      vertex -1.095756e+01 1.080348e+01 0.000000e+00
      vertex -1.064279e+01 1.076604e+01 0.000000e+00
      vertex -1.076604e+01 1.064279e+01 0.000000e+00
    endloop
  endfacet
  facet normal 0.000000e+00 0.000000e+00 -1.000000e+00
    outer loop
      vertex -1.108253e+01 1.062500e+01 0.000000e+00
      vertex -1.076604e+01 1.064279e+01 0.000000e+00
      vertex -1.086603e+01 1.050000e+01 0.000000e+00
    endloop
  endfacet
  facet normal 0.000000e+00 0.000000e+00 -1.000000e+00
    outer loop
      vertex -1.117462e+01 1.042753e+01 0.000000e+00
      vertex -1.086603e+01 1.050000e+01 0.000000e+00
      vertex -1.093969e+01 1.034202e+01 0.000000e+00
    endloop
  endfacet
  facet normal 0.000000e+00 0.000000e+00 -1.000000e+00
    outer loop
      vertex -1.123101e+01 1.021706e+01 0.000000e+00
      vertex -1.093969e+01 1.034202e+01 0.000000e+00
      vertex -1.098481e+01 1.017365e+01 0.000000e+00
    endloop
  endfacet
  facet normal 0.000000e+00 0.000000e+00 -1.000000e+00
    outer loop
      vertex -1.125000e+01 1.000000e+01 0.000000e+00
      vertex -1.098481e+01 1.017365e+01 0.000000e+00
      vertex -1.100000e+01 1.000000e+01 0.000000e+00
    endloop
  endfacet
  facet normal 0.000000e+00 0.000000e+00 -1.000000e+00
    outer loop
      vertex -1.125000e+01 -1.000000e+01 0.000000e+00
      vertex -1.100000e+01 1.000000e+01 0.000000e+00
      vertex -1.100000e+01 -1.000000e+01 0.000000e+00
    endloop
  endfacet
  facet normal 0.000000e+00 0.000000e+00 -1.000000e+00
    outer loop
      vertex -1.123101e+01 -1.021706e+01 0.000000e+00
      vertex -1.100000e+01 -1.000000e+01 0.000000e+00
      vertex -1.098481e+01 -1.017365e+01 0.000000e+00
    endloop
  endfacet
  facet normal 0.000000e+00 0.000000e+00 -1.000000e+00
    outer loop
      vertex -1.093969e+01 -1.034202e+01 0.000000e+00
      vertex -1.123101e+01 -1.021706e+01 0.000000e+00
      vertex -1.098481e+01 -1.017365e+01 0.000000e+00
    endloop
  endfacet
  facet normal 0.000000e+00 0.000000e+00 -1.000000e+00
    outer loop
      vertex -1.093969e+01 -1.034202e+01 0.000000e+00
      vertex -1.117462e+01 -1.042753e+01 0.000000e+00
      vertex -1.123101e+01 -1.021706e+01 0.000000e+00
    endloop
  endfacet
  facet normal -0.000000e+00 -0.000000e+00 -1.000000e+00
    outer loop
      vertex -1.093969e+01 -1.034202e+01 0.000000e+00
      vertex -1.086603e+01 -1.050000e+01 0.000000e+00
      vertex -1.117462e+01 -1.042753e+01 0.000000e+00
    endloop
  endfacet
  facet normal 0.000000e+00 0.000000e+00 -1.000000e+00
    outer loop
      vertex -1.117462e+01 -1.042753e+01 0.000000e+00
      vertex -1.086603e+01 -1.050000e+01 0.000000e+00
      vertex -1.108253e+01 -1.062500e+01 0.000000e+00
    endloop
  endfacet
  facet normal 0.000000e+00 0.000000e+00 -1.000000e+00
    outer loop
      vertex -1.108253e+01 -1.062500e+01 0.000000e+00
      vertex -1.086603e+01 -1.050000e+01 0.000000e+00
      vertex -1.076604e+01 -1.064279e+01 0.000000e+00
    endloop
  endfacet
  facet normal 0.000000e+00 0.000000e+00 -1.000000e+00
    outer loop
      vertex -1.095756e+01 -1.080348e+01 0.000000e+00
      vertex -1.076604e+01 -1.064279e+01 0.000000e+00
      vertex -1.064279e+01 -1.076604e+01 0.000000e+00
    endloop
  endfacet
  facet normal 0.000000e+00 0.000000e+00 -1.000000e+00
    outer loop
      vertex -1.080348e+01 -1.095756e+01 0.000000e+00
      vertex -1.064279e+01 -1.076604e+01 0.000000e+00
      vertex -1.050000e+01 -1.086603e+01 0.000000e+00
    endloop
  endfacet
  facet normal 0.000000e+00 0.000000e+00 -1.000000e+00
    outer loop
      vertex -1.062500e+01 -1.108253e+01 0.000000e+00
      vertex -1.050000e+01 -1.086603e+01 0.000000e+00
      vertex -1.034202e+01 -1.093969e+01 0.000000e+00
    endloop
  endfacet
  facet normal 0.000000e+00 0.000000e+00 -1.000000e+00
    outer loop
      vertex -1.017365e+01 -1.098481e+01 0.000000e+00
      vertex -1.062500e+01 -1.108253e+01 0.000000e+00
      vertex -1.034202e+01 -1.093969e+01 0.000000e+00
    endloop
  endfacet
  facet normal 0.000000e+00 0.000000e+00 -1.000000e+00
    outer loop
      vertex -1.017365e+01 -1.098481e+01 0.000000e+00
      vertex -1.000000e+01 -1.100000e+01 0.000000e+00
      vertex -1.062500e+01 -1.108253e+01 0.000000e+00
    endloop
  endfacet
  facet normal 0.000000e+00 0.000000e+00 -1.000000e+00
    outer loop
      vertex -1.062500e+01 -1.108253e+01 0.000000e+00
      vertex -1.000000e+01 -1.100000e+01 0.000000e+00
      vertex 1.000000e+01 -1.100000e+01 0.000000e+00
    endloop
  endfacet
  facet normal 0.000000e+00 0.000000e+00 -1.000000e+00
    outer loop
      vertex 1.062500e+01 -1.108253e+01 0.000000e+00
      vertex 1.000000e+01 -1.100000e+01 0.000000e+00
      vertex 1.017365e+01 -1.098481e+01 0.000000e+00
    endloop
  endfacet
  facet normal -0.000000e+00 -0.000000e+00 -1.000000e+00
    outer loop
      vertex 1.034202e+01 -1.093969e+01 0.000000e+00
      vertex 1.062500e+01 -1.108253e+01 0.000000e+00
      vertex 1.017365e+01 -1.098481e+01 0.000000e+00
    endloop
  endfacet
  facet normal 0.000000e+00 0.000000e+00 -1.000000e+00
    outer loop
      vertex 1.034202e+01 -1.093969e+01 0.000000e+00
      vertex 1.050000e+01 -1.086603e+01 0.000000e+00
      vertex 1.062500e+01 -1.108253e+01 0.000000e+00
    endloop
  endfacet
  facet normal 0.000000e+00 0.000000e+00 -1.000000e+00
    outer loop
      vertex 1.062500e+01 -1.108253e+01 0.000000e+00
      vertex 1.050000e+01 -1.086603e+01 0.000000e+00
      vertex 1.080348e+01 -1.095756e+01 0.000000e+00
    endloop
  endfacet
  facet normal 0.000000e+00 0.000000e+00 -1.000000e+00
    outer loop
      vertex 1.080348e+01 -1.095756e+01 0.000000e+00
      vertex 1.050000e+01 -1.086603e+01 0.000000e+00
      vertex 1.064279e+01 -1.076604e+01 0.000000e+00
    endloop
  endfacet
  facet normal 0.000000e+00 0.000000e+00 -1.000000e+00
    outer loop
      vertex 1.095756e+01 -1.080348e+01 0.000000e+00
      vertex 1.064279e+01 -1.076604e+01 0.000000e+00
      vertex 1.076604e+01 -1.064279e+01 0.000000e+00
    endloop
  endfacet
  facet normal 0.000000e+00 0.000000e+00 -1.000000e+00
    outer loop
      vertex 1.108253e+01 -1.062500e+01 0.000000e+00
      vertex 1.076604e+01 -1.064279e+01 0.000000e+00
      vertex 1.086603e+01 -1.050000e+01 0.000000e+00
    endloop
  endfacet
  facet normal 0.000000e+00 0.000000e+00 -1.000000e+00
    outer loop
      vertex 1.117462e+01 -1.042753e+01 0.000000e+00
      vertex 1.086603e+01 -1.050000e+01 0.000000e+00
      vertex 1.093969e+01 -1.034202e+01 0.000000e+00
    endloop
  endfacet
  facet normal 0.000000e+00 0.000000e+00 -1.000000e+00
    outer loop
      vertex 1.123101e+01 -1.021706e+01 0.000000e+00
      vertex 1.093969e+01 -1.034202e+01 0.000000e+00
      vertex 1.098481e+01 -1.017365e+01 0.000000e+00
    endloop
  endfacet
  facet normal 0.000000e+00 0.000000e+00 -1.000000e+00
    outer loop
      vertex 1.125000e+01 -1.000000e+01 0.000000e+00
      vertex 1.098481e+01 -1.017365e+01 0.000000e+00
      vertex 1.100000e+01 -1.000000e+01 0.000000e+00
    endloop
  endfacet
  facet normal 0.000000e+00 0.000000e+00 -1.000000e+00
    outer loop
      vertex 1.125000e+01 1.000000e+01 0.000000e+00
      vertex 1.100000e+01 -1.000000e+01 0.000000e+00
      vertex 1.100000e+01 1.000000e+01 0.000000e+00
    endloop
  endfacet
  facet normal -0.000000e+00 -0.000000e+00 -1.000000e+00
    outer loop
      vertex 1.098481e+01 1.017365e+01 0.000000e+00
      vertex 1.125000e+01 1.000000e+01 0.000000e+00
      vertex 1.100000e+01 1.000000e+01 0.000000e+00
    endloop
  endfacet
  facet normal 0.000000e+00 0.000000e+00 -1.000000e+00
    outer loop
      vertex 1.098481e+01 1.017365e+01 0.000000e+00
      vertex 1.123101e+01 1.021706e+01 0.000000e+00
      vertex 1.125000e+01 1.000000e+01 0.000000e+00
    endloop
  endfacet
  facet normal 0.000000e+00 0.000000e+00 -1.000000e+00
    outer loop
      vertex 1.098481e+01 1.017365e+01 0.000000e+00
      vertex 1.093969e+01 1.034202e+01 0.000000e+00
      vertex 1.123101e+01 1.021706e+01 0.000000e+00
    endloop
  endfacet
  facet normal 0.000000e+00 0.000000e+00 -1.000000e+00
    outer loop
      vertex 1.123101e+01 1.021706e+01 0.000000e+00
      vertex 1.093969e+01 1.034202e+01 0.000000e+00
      vertex 1.117462e+01 1.042753e+01 0.000000e+00
    endloop
  endfacet
  facet normal 0.000000e+00 0.000000e+00 -1.000000e+00
    outer loop
      vertex 1.117462e+01 1.042753e+01 0.000000e+00
      vertex 1.093969e+01 1.034202e+01 0.000000e+00
      vertex 1.086603e+01 1.050000e+01 0.000000e+00
    endloop
  endfacet
  facet normal 0.000000e+00 0.000000e+00 -1.000000e+00
    outer loop
      vertex 1.108253e+01 1.062500e+01 0.000000e+00
      vertex 1.086603e+01 1.050000e+01 0.000000e+00
      vertex 1.076604e+01 1.064279e+01 0.000000e+00
    endloop
  endfacet
  facet normal 0.000000e+00 0.000000e+00 -1.000000e+00
    outer loop
      vertex 1.095756e+01 1.080348e+01 0.000000e+00
      vertex 1.076604e+01 1.064279e+01 0.000000e+00
      vertex 1.064279e+01 1.076604e+01 0.000000e+00
    endloop
  endfacet
  facet normal 0.000000e+00 0.000000e+00 -1.000000e+00
    outer loop
      vertex 1.080348e+01 1.095756e+01 0.000000e+00
      vertex 1.064279e+01 1.076604e+01 0.000000e+00
      vertex 1.050000e+01 1.086603e+01 0.000000e+00
    endloop
  endfacet
  facet normal 0.000000e+00 0.000000e+00 -1.000000e+00
    outer loop
      vertex 1.062500e+01 1.108253e+01 0.000000e+00
      vertex 1.080348e+01 1.095756e+01 0.000000e+00
      vertex 1.050000e+01 1.086603e+01 0.000000e+00
    endloop
  endfacet
  facet normal 0.000000e+00 0.000000e+00 -1.000000e+00
    outer loop
      vertex -1.000000e+01 1.125000e+01 0.000000e+00
      vertex 1.000000e+01 1.125000e+01 0.000000e+00
      vertex -1.021706e+01 1.123101e+01 0.000000e+00
    endloop
  endfacet
  facet normal 0.000000e+00 0.000000e+00 -1.000000e+00
    outer loop
      vertex -1.021706e+01 1.123101e+01 0.000000e+00
      vertex 1.000000e+01 1.125000e+01 0.000000e+00
      vertex 1.021706e+01 1.123101e+01 0.000000e+00
    endloop
  endfacet
  facet normal 0.000000e+00 0.000000e+00 -1.000000e+00
    outer loop
      vertex -1.042753e+01 1.117462e+01 0.000000e+00
      vertex 1.021706e+01 1.123101e+01 0.000000e+00
      vertex 1.042753e+01 1.117462e+01 0.000000e+00
    endloop
  endfacet
  facet normal 0.000000e+00 0.000000e+00 -1.000000e+00
    outer loop
      vertex -1.062500e+01 1.108253e+01 0.000000e+00
      vertex 1.042753e+01 1.117462e+01 0.000000e+00
      vertex 1.062500e+01 1.108253e+01 0.000000e+00
    endloop
  endfacet
  facet normal 0.000000e+00 0.000000e+00 -1.000000e+00
    outer loop
      vertex -1.000000e+01 1.100000e+01 0.000000e+00
      vertex 1.062500e+01 1.108253e+01 0.000000e+00
      vertex 1.000000e+01 1.100000e+01 0.000000e+00
    endloop
  endfacet
  facet normal 0.000000e+00 0.000000e+00 -1.000000e+00
    outer loop
      vertex -1.000000e+01 1.100000e+01 0.000000e+00
      vertex -1.062500e+01 1.108253e+01 0.000000e+00
      vertex 1.062500e+01 1.108253e+01 0.000000e+00
    endloop
  endfacet
  facet normal 0.000000e+00 0.000000e+00 -1.000000e+00
    outer loop
      vertex 1.080348e+01 1.095756e+01 0.000000e+00
      vertex 1.095756e+01 1.080348e+01 0.000000e+00
      vertex 1.064279e+01 1.076604e+01 0.000000e+00
    endloop
  endfacet
  facet normal -0.000000e+00 -0.000000e+00 -1.000000e+00
    outer loop
      vertex 1.095756e+01 1.080348e+01 0.000000e+00
      vertex 1.108253e+01 1.062500e+01 0.000000e+00
      vertex 1.076604e+01 1.064279e+01 0.000000e+00
    endloop
  endfacet
  facet normal -0.000000e+00 -0.000000e+00 -1.000000e+00
    outer loop
      vertex 1.108253e+01 1.062500e+01 0.000000e+00
      vertex 1.117462e+01 1.042753e+01 0.000000e+00
      vertex 1.086603e+01 1.050000e+01 0.000000e+00
    endloop
  endfacet
  facet normal -0.000000e+00 -0.000000e+00 -1.000000e+00
    outer loop
      vertex 1.125000e+01 1.000000e+01 0.000000e+00
      vertex 1.125000e+01 -1.000000e+01 0.000000e+00
      vertex 1.100000e+01 -1.000000e+01 0.000000e+00
    endloop
  endfacet
  facet normal 0.000000e+00 0.000000e+00 -1.000000e+00
    outer loop
      vertex 1.125000e+01 -1.000000e+01 0.000000e+00
      vertex 1.123101e+01 -1.021706e+01 0.000000e+00
      vertex 1.098481e+01 -1.017365e+01 0.000000e+00
    endloop
  endfacet
  facet normal 0.000000e+00 0.000000e+00 -1.000000e+00
    outer loop
      vertex 1.123101e+01 -1.021706e+01 0.000000e+00
      vertex 1.117462e+01 -1.042753e+01 0.000000e+00
      vertex 1.093969e+01 -1.034202e+01 0.000000e+00
    endloop
  endfacet
  facet normal 0.000000e+00 0.000000e+00 -1.000000e+00
    outer loop
      vertex 1.117462e+01 -1.042753e+01 0.000000e+00
      vertex 1.108253e+01 -1.062500e+01 0.000000e+00
      vertex 1.086603e+01 -1.050000e+01 0.000000e+00
    endloop
  endfacet
  facet normal 0.000000e+00 0.000000e+00 -1.000000e+00
    outer loop
      vertex 1.108253e+01 -1.062500e+01 0.000000e+00
      vertex 1.095756e+01 -1.080348e+01 0.000000e+00
      vertex 1.076604e+01 -1.064279e+01 0.000000e+00
    endloop
  endfacet
  facet normal 0.000000e+00 0.000000e+00 -1.000000e+00
    outer loop
      vertex 1.095756e+01 -1.080348e+01 0.000000e+00
      vertex 1.080348e+01 -1.095756e+01 0.000000e+00
      vertex 1.064279e+01 -1.076604e+01 0.000000e+00
    endloop
  endfacet
  facet normal 0.000000e+00 0.000000e+00 -1.000000e+00
    outer loop
      vertex 1.000000e+01 -1.125000e+01 0.000000e+00
      vertex -1.000000e+01 -1.125000e+01 0.000000e+00
      vertex 1.021706e+01 -1.123101e+01 0.000000e+00
    endloop
  endfacet
  facet normal 0.000000e+00 0.000000e+00 -1.000000e+00
    outer loop
      vertex 1.021706e+01 -1.123101e+01 0.000000e+00
      vertex -1.000000e+01 -1.125000e+01 0.000000e+00
      vertex -1.021706e+01 -1.123101e+01 0.000000e+00
    endloop
  endfacet
  facet normal 0.000000e+00 0.000000e+00 -1.000000e+00
    outer loop
      vertex 1.042753e+01 -1.117462e+01 0.000000e+00
      vertex -1.021706e+01 -1.123101e+01 0.000000e+00
      vertex -1.042753e+01 -1.117462e+01 0.000000e+00
    endloop
  endfacet
  facet normal 0.000000e+00 0.000000e+00 -1.000000e+00
    outer loop
      vertex 1.062500e+01 -1.108253e+01 0.000000e+00
      vertex -1.042753e+01 -1.117462e+01 0.000000e+00
      vertex -1.062500e+01 -1.108253e+01 0.000000e+00
    endloop
  endfacet
  facet normal -0.000000e+00 -0.000000e+00 -1.000000e+00
    outer loop
      vertex 1.000000e+01 -1.100000e+01 0.000000e+00
      vertex 1.062500e+01 -1.108253e+01 0.000000e+00
      vertex -1.062500e+01 -1.108253e+01 0.000000e+00
    endloop
  endfacet
  facet normal 0.000000e+00 0.000000e+00 -1.000000e+00
    outer loop
      vertex 1.042753e+01 -1.117462e+01 0.000000e+00
      vertex 1.021706e+01 -1.123101e+01 0.000000e+00
      vertex -1.021706e+01 -1.123101e+01 0.000000e+00
    endloop
  endfacet
  facet normal 0.000000e+00 0.000000e+00 -1.000000e+00
    outer loop
      vertex -1.062500e+01 -1.108253e+01 0.000000e+00
      vertex -1.080348e+01 -1.095756e+01 0.000000e+00
      vertex -1.050000e+01 -1.086603e+01 0.000000e+00
    endloop
  endfacet
  facet normal 0.000000e+00 0.000000e+00 -1.000000e+00
    outer loop
      vertex -1.080348e+01 -1.095756e+01 0.000000e+00
      vertex -1.095756e+01 -1.080348e+01 0.000000e+00
      vertex -1.064279e+01 -1.076604e+01 0.000000e+00
    endloop
  endfacet
  facet normal 0.000000e+00 0.000000e+00 -1.000000e+00
    outer loop
      vertex -1.095756e+01 -1.080348e+01 0.000000e+00
      vertex -1.108253e+01 -1.062500e+01 0.000000e+00
      vertex -1.076604e+01 -1.064279e+01 0.000000e+00
    endloop
  endfacet
  facet normal 0.000000e+00 0.000000e+00 -1.000000e+00
    outer loop
      vertex -1.123101e+01 -1.021706e+01 0.000000e+00
      vertex -1.125000e+01 -1.000000e+01 0.000000e+00
      vertex -1.100000e+01 -1.000000e+01 0.000000e+00
    endloop
  endfacet
  facet normal 0.000000e+00 0.000000e+00 -1.000000e+00
    outer loop
      vertex -1.125000e+01 -1.000000e+01 0.000000e+00
      vertex -1.125000e+01 1.000000e+01 0.000000e+00
      vertex -1.100000e+01 1.000000e+01 0.000000e+00
    endloop
  endfacet
  facet normal 0.000000e+00 0.000000e+00 -1.000000e+00
    outer loop
      vertex -1.125000e+01 1.000000e+01 0.000000e+00
      vertex -1.123101e+01 1.021706e+01 0.000000e+00
      vertex -1.098481e+01 1.017365e+01 0.000000e+00
    endloop
  endfacet
  facet normal 0.000000e+00 0.000000e+00 -1.000000e+00
    outer loop
      vertex -1.123101e+01 1.021706e+01 0.000000e+00
      vertex -1.117462e+01 1.042753e+01 0.000000e+00
      vertex -1.093969e+01 1.034202e+01 0.000000e+00
    endloop
  endfacet
  facet normal 0.000000e+00 0.000000e+00 -1.000000e+00
    outer loop
      vertex -1.117462e+01 1.042753e+01 0.000000e+00
      vertex -1.108253e+01 1.062500e+01 0.000000e+00
      vertex -1.086603e+01 1.050000e+01 0.000000e+00
    endloop
  endfacet
  facet normal 0.000000e+00 0.000000e+00 -1.000000e+00
    outer loop
      vertex -1.108253e+01 1.062500e+01 0.000000e+00
      vertex -1.095756e+01 1.080348e+01 0.000000e+00
      vertex -1.076604e+01 1.064279e+01 0.000000e+00
    endloop
  endfacet
  facet normal 0.000000e+00 0.000000e+00 -1.000000e+00
    outer loop
      vertex -1.095756e+01 1.080348e+01 0.000000e+00
      vertex -1.080348e+01 1.095756e+01 0.000000e+00
      vertex -1.064279e+01 1.076604e+01 0.000000e+00
    endloop
  endfacet
  facet normal 0.000000e+00 0.000000e+00 -1.000000e+00
    outer loop
      vertex -1.080348e+01 1.095756e+01 0.000000e+00
      vertex -1.062500e+01 1.108253e+01 0.000000e+00
      vertex -1.050000e+01 1.086603e+01 0.000000e+00
    endloop
  endfacet
  facet normal 0.000000e+00 0.000000e+00 -1.000000e+00
    outer loop
      vertex -1.062500e+01 1.108253e+01 0.000000e+00
      vertex -1.042753e+01 1.117462e+01 0.000000e+00
      vertex 1.042753e+01 1.117462e+01 0.000000e+00
    endloop
  endfacet
  facet normal 0.000000e+00 0.000000e+00 -1.000000e+00
    outer loop
      vertex -1.042753e+01 1.117462e+01 0.000000e+00
      vertex -1.021706e+01 1.123101e+01 0.000000e+00
      vertex 1.021706e+01 1.123101e+01 0.000000e+00
    endloop
  endfacet
  facet normal 0.000000e+00 0.000000e+00 -1.000000e+00
    outer loop
      vertex 1.042753e+01 -1.117462e+01 0.000000e+00
      vertex -1.042753e+01 -1.117462e+01 0.000000e+00
      vertex 1.062500e+01 -1.108253e+01 0.000000e+00
    endloop
  endfacet
endsolid Default
